<?xml version="1.0" standalone="no"?>
<!DOCTYPE svg PUBLIC "-//W3C//DTD SVG 1.1//EN" "http://www.w3.org/Graphics/SVG/1.1/DTD/svg11.dtd" >
<svg xmlns="http://www.w3.org/2000/svg" xmlns:xlink="http://www.w3.org/1999/xlink" version="1.1">
<metadata></metadata>
<defs>
<font id="nyk_ngayogyan_oldregular" horiz-adv-x="1184" >
<font-face units-per-em="2048" ascent="1638" descent="-410" />
<missing-glyph horiz-adv-x="378" />
<glyph unicode="&#xd;" horiz-adv-x="378" />
<glyph horiz-adv-x="0" />
<glyph horiz-adv-x="0" />
<glyph unicode=" "  horiz-adv-x="378" />
<glyph unicode="&#x09;" horiz-adv-x="378" />
<glyph unicode="&#xa0;" horiz-adv-x="378" />
<glyph unicode="!" horiz-adv-x="622" d="M88 97q0 42 29 71t69 29q42 0 70.5 -29t28.5 -71q0 -40 -28.5 -68.5t-70.5 -28.5q-40 0 -69 28.5t-29 68.5zM210 296q48 188 61 248t41 209q57 336 101 491q19 66 55 86q22 13 47 13q13 0 26 -4q39 -11 59 -47.5t1 -102.5q-48 -169 -173 -466q-57 -143 -77 -200.5 t-72 -226.5h-69z" />
<glyph unicode="&#x22;" horiz-adv-x="957" d="M352 764l31 294q12 125 26 170q16 58 52.5 86.5t78.5 28.5q34 0 54.5 -20t20.5 -57q0 -29 -9 -59q-13 -46 -75 -171l-127 -272h-52zM655 764l31 294q12 125 25 170q16 58 52.5 86.5t78.5 28.5q34 0 55 -20t21 -57q0 -29 -10 -59q-13 -46 -75 -171l-127 -272h-51z" />
<glyph unicode="#" horiz-adv-x="1352" d="M206 425v94h245l87 304h-219v95h246l130 452l91 -27l-122 -425h311l129 452l91 -27l-122 -425h219v-95h-246l-87 -304h219v-94h-246l-129 -451l-91 26l122 425h-311l-130 -451l-91 26l122 425h-218zM550 519h311l87 304h-311z" />
<glyph unicode="$" horiz-adv-x="1141" d="M89 116l34 115l65 232l51 -15q-12 -84 -1 -145q20 -111 108 -173q29 -21 64 -35l156 545q-19 20 -39 42q-98 106 -131 177q-34 74 -34 158q0 138 100.5 232t257.5 94q24 0 47 -2l1 2l40 140l75 -22l-33 -118l-5 -17q30 -9 82 -31q135 -58 215 -58l-91 -319l-50 13 q13 70 12 111q-1 82 -73 155q-47 47 -114 64l-134 -467q23 -27 51 -57q142 -154 183.5 -230t41.5 -163q0 -106 -47.5 -181t-140 -119t-223.5 -44q-52 0 -91 7l-2 -7l-40 -139l-75 22l34 117l7 25q-37 12 -89 31q-125 48 -212 60zM486 75q34 -6 71 -6q107 0 171.5 66.5 t64.5 151.5q0 66 -30 119q-18 33 -135 165zM523 1078q0 -66 39 -126q20 -32 68 -88l116 406h-1q-98 0 -160 -58t-62 -134z" />
<glyph unicode="%" horiz-adv-x="1724" d="M237 0l1410 1410l67 -67l-1411 -1410zM333 895q0 179 124 313.5t262 134.5q93 0 161.5 -74t68.5 -195q0 -184 -120.5 -317t-256.5 -133q-100 0 -169.5 76t-69.5 195zM460 780q0 -54 30 -86t72 -32q43 0 74 29q70 66 129 212t59 277q0 56 -29 88.5t-68 32.5q-49 0 -90 -39 q-71 -66 -124 -212t-53 -270zM1001 270q0 179 124.5 314t262.5 135q93 0 161.5 -74t68.5 -195q0 -184 -121 -317t-257 -133q-100 0 -169.5 76t-69.5 194zM1129 156q0 -53 30 -85.5t71 -32.5q43 0 74 29q70 66 129.5 212t59.5 277q0 56 -29.5 88.5t-68.5 32.5q-49 0 -89 -39 q-71 -66 -124 -212.5t-53 -269.5z" />
<glyph unicode="&#x26;" horiz-adv-x="1658" d="M162 321q0 173 169 305q89 74 359 171q-9 70 -9 130q0 193 100 304.5t268 111.5q97 0 153 -53.5t56 -140.5q0 -94 -80 -186q-73 -85 -292 -170q7 -36 18 -75q46 -187 156 -393q62 81 128 191q31 52 26.5 83.5t-30.5 48t-65 19.5l15 51h400l-14 -51q-48 -2 -93.5 -16.5 t-87 -50.5t-89.5 -115q-84 -140 -151 -227q111 -180 229 -180q89 0 156 86l49 -17q-57 -78 -120.5 -112.5t-150.5 -34.5q-107 0 -184 34q-57 25 -115 91q-26 -20 -56 -40q-124 -85 -320 -85q-222 0 -323.5 93t-101.5 228zM377 369q0 -120 73 -198t195 -78q125 0 225 60 q25 15 48 31q-80 113 -136 263q-57 152 -79 271q0 1 -1 1q-143 -65 -217 -132q-108 -97 -108 -218zM854 1022q0 -62 17 -155q152 66 199 123q66 83 66 159q0 61 -33 93.5t-86 32.5q-68 0 -115.5 -58t-47.5 -195z" />
<glyph unicode="'" horiz-adv-x="655" d="M352 764l31 294q12 125 26 170q16 58 52.5 86.5t78.5 28.5q34 0 54.5 -20t20.5 -57q0 -29 -9 -59q-13 -46 -75 -171l-127 -272h-52z" />
<glyph unicode="(" horiz-adv-x="737" d="M166 206q0 322 148 572q182 309 550 565l30 -42q-123 -94 -243 -260q-156 -224 -242 -524q-86 -299 -86 -524q0 -183 90 -389l-43 -30q-113 188 -164 360q-39 134 -40 272z" />
<glyph unicode=")" horiz-adv-x="737" d="M-69 -383q123 94 243 259q156 224 242 525q86 299 86 524q0 183 -90 389l43 29q113 -188 164 -360q39 -134 40 -271q0 -322 -148 -573q-182 -309 -550 -565z" />
<glyph unicode="*" horiz-adv-x="1121" d="M380 793.5q11 34.5 56 60.5q32 19 133 37q79 14 130 43q-52 29 -130 42q-101 19 -133 38q-45 25 -56 59.5t7 65.5q17 30 52 38t80 -19q32 -18 99 -95q51 -62 102 -92q-1 59 -29 134q-34 97 -33 134q0 52 24 78t59 26t59.5 -26.5t24.5 -77.5q0 -37 -34 -134 q-29 -75 -28 -134q51 30 101 92q67 78 99 95q45 26 80.5 18.5t52.5 -37.5q18 -30 7 -64.5t-56 -60.5q-32 -19 -133 -38q-79 -14 -131 -42q52 -29 131 -43q101 -19 133 -37q45 -25 56 -60t-7 -65q-17 -30 -52.5 -38t-80.5 18q-32 18 -99 96q-51 61 -101 92q0 -59 28 -134 q34 -97 34 -134q0 -52 -24 -78.5t-60 -26.5q-35 0 -59 27t-24 78q0 37 33 134q28 75 29 134q-51 -30 -102 -92q-67 -78 -99 -96q-45 -26 -80 -18t-52 38q-18 30 -7 64.5z" />
<glyph unicode="+" horiz-adv-x="1363" d="M263 625v94h486v485h94v-485h485v-94h-485v-486h-94v486h-486z" />
<glyph unicode="," horiz-adv-x="479" d="M11 -205q75 34 121 85q35 39 35 77q0 10 -4 24q-6 19 -38 51.5t-32 78.5t32 78t78 32q48 0 80 -32.5t32 -77.5q0 -119 -72.5 -212.5t-205.5 -148.5z" />
<glyph unicode="-" horiz-adv-x="812" d="M167 386l42 146h525l-42 -146h-525z" />
<glyph unicode="." horiz-adv-x="470" d="M93 111q0 46 32 78t78 32q48 0 80 -32.5t32 -77.5q0 -46 -33 -78.5t-79 -32.5t-78 32.5t-32 78.5z" />
<glyph unicode="/" horiz-adv-x="911" d="M57 0l738 1388l82 -45l-737 -1387z" />
<glyph unicode="0" horiz-adv-x="1179" d="M225 425q0 216 84 439q98 258 251 381q116 98 253 98q151 0 235 -110.5t84 -314.5q0 -216 -83 -439q-98 -258 -252 -381q-116 -98 -253 -98q-151 0 -235 110.5t-84 314.5zM396 290q0 -106 43 -163.5t105 -57.5q55 0 112.5 50.5t117.5 178.5t124 351q63 220 63 404 q0 106 -42.5 164t-105.5 58q-55 0 -112 -51t-117.5 -178.5t-123.5 -350.5q-63 -220 -64 -405z" />
<glyph unicode="1" horiz-adv-x="655" d="M-42 0l15 52q24 0 60 23q56 38 87 145l241 843q34 120 35 141q0 26 -15.5 36t-41.5 7l-9 51l191 33q70 12 88 12q37 0 20 -57l-310 -1083q-17 -60 -18 -83q0 -24 9.5 -38.5t25 -22t38.5 -7.5l-15 -52h-401z" />
<glyph unicode="2" horiz-adv-x="1028" d="M97 0l20 69q499 437 632 636q108 153 108 253q0 103 -63 168.5t-165 65.5q-139 0 -218 -140l-47 20q52 130 148.5 200.5t210.5 70.5q132 0 219 -88t87 -212q0 -66 -31 -141q-48 -108 -180 -252q-192 -218 -510 -499h330q86 0 122 11.5t59 33.5t35 55h52l-72 -251h-737z " />
<glyph unicode="3" horiz-adv-x="991" d="M92 111q0 34 24 56.5t59 22.5q25 0 50 -8q16 -4 75.5 -37.5t93 -45t82.5 -11.5q86 0 141.5 100t55.5 213q0 92 -37.5 163.5t-118.5 116t-185 51.5l15 51q224 18 337 112q82 72 82 172q0 75 -47.5 124.5t-120.5 43.5q-98 -8 -173 -135l-47 20q42 116 119 169.5t178 53.5 q143 0 213 -64t70 -173q0 -88 -65.5 -169t-215.5 -152q72 -34 122.5 -110t50.5 -193q0 -112 -68.5 -231.5t-186.5 -185t-263 -65.5q-137 0 -199 42q-41 29 -41 69z" />
<glyph unicode="4" horiz-adv-x="1155" d="M143 303l44 151l691 698l190 191h69l-255 -889h99l-44 -151h-98l-87 -303h-204l87 303h-492zM284 454h394l160 559z" />
<glyph unicode="5" horiz-adv-x="1024" d="M92 111q0 34 24 56.5t59 22.5q25 0 50 -8q16 -4 75.5 -49t109.5 -45q110 0 202.5 114.5t92.5 289.5q0 122 -49.5 208t-125 121t-202.5 48l209 474h468l-43 -150h-415l-77 -174q169 -24 257 -97q135 -114 135 -322q0 -134 -43.5 -242.5t-114 -186.5t-168 -124.5 t-222.5 -46.5q-119 0 -181 42q-41 29 -41 69z" />
<glyph unicode="6" horiz-adv-x="1179" d="M199 378q0 196 90.5 386t244.5 326.5t324 200.5q120 43 276 52l9 -50q-172 -25 -325 -147q-141 -112 -249 -282q41 8 70 10.5t77 2.5q152 0 241.5 -88.5t89.5 -238.5q0 -230 -146.5 -390t-356.5 -160q-185 0 -265 114t-80 264zM365 279q0 -102 52 -156t119 -54 q118 0 213 146.5t95 357.5q0 113 -56 174.5t-134 61.5q-35 0 -67 -11q-53 -18 -85 -47q-137 -297 -137 -472z" />
<glyph unicode="7" horiz-adv-x="1261" d="M347 1013l95 330h777l-20 -68l-718 -1275h-98l672 1193h-319q-106 0 -163.5 -23t-101.5 -63t-75 -108z" />
<glyph unicode="8" horiz-adv-x="1056" d="M159 315q0 108 79 212q79 108 286 196q-76 93 -99 147q-30 68 -30 147q0 143 90.5 234.5t263.5 91.5q134 0 212.5 -79t78.5 -184q0 -114 -74 -202q-56 -66 -201 -132q79 -94 113 -159q52 -93 52 -200q0 -155 -121 -271t-308 -116q-146 0 -244 86.5t-98 228.5zM287 292 q0 -96 64 -159.5t169 -63.5q109 0 183.5 68.5t74.5 157.5q0 64 -43.5 150t-161.5 221q-1 0 0 1q-164 -75 -226 -172q-61 -90 -60 -203zM535 1103q0 -43 28 -96q39 -78 150 -202q125 64 164 126q41 60 41 147q0 89 -52.5 143t-136.5 54q-89 0 -141.5 -47.5t-52.5 -124.5z" />
<glyph unicode="9" horiz-adv-x="1179" d="M215 51q172 25 325 146q141 112 249 282q-41 -8 -70 -10.5t-78 -2.5q-152 0 -241.5 89t-89.5 239q0 231 147 390t356 159q185 0 265 -113.5t80 -263.5q0 -196 -90.5 -386.5t-244.5 -327t-323 -200.5q-120 -43 -276 -52zM514 770q0 -113 55.5 -174t134.5 -61q35 0 66 11 q53 17 85 46q137 297 137 473q0 102 -51.5 156t-118.5 54q-118 0 -213 -147t-95 -358z" />
<glyph unicode=":" horiz-adv-x="552" d="M93 111q0 46 32 78t78 32q48 0 80 -32.5t32 -77.5q0 -46 -33 -78.5t-79 -32.5t-78 32.5t-32 78.5zM293 807q0 46 32 78.5t78 32.5q48 0 79.5 -32.5t31.5 -78.5t-32.5 -78.5t-78.5 -32.5t-78 32.5t-32 78.5z" />
<glyph unicode=";" horiz-adv-x="561" d="M11 -205q75 34 121 85q35 39 35 77q0 10 -4 24q-6 19 -38 51.5t-32 78.5t32 78t78 32q48 0 80 -32.5t32 -77.5q0 -119 -72.5 -212.5t-205.5 -148.5zM293 807q0 46 32 78.5t78 32.5q48 0 79.5 -32.5t31.5 -78.5t-32.5 -78.5t-78.5 -32.5t-78 32.5t-32 78.5z" />
<glyph unicode="&#x3c;" horiz-adv-x="1400" d="M256 650v48l1065 461v-102l-882 -384l882 -386v-103z" />
<glyph unicode="=" horiz-adv-x="1378" d="M311 455v94h1065v-94h-1065zM311 795v94h1065v-94h-1065z" />
<glyph unicode="&#x3e;" horiz-adv-x="1482" d="M389 184v103l882 386l-882 384v102l1065 -461v-48z" />
<glyph unicode="?" horiz-adv-x="1090" d="M305 98q0 41 28.5 70t68.5 29q42 0 70.5 -29t28.5 -70t-29 -69.5t-70 -28.5q-40 0 -68.5 28.5t-28.5 69.5zM383 1113q0 88 85 159t232 71q182 0 275 -85.5t93 -195.5q0 -88 -43 -162q-57 -93 -218 -203.5t-221 -187t-91 -210.5h-35h-34q16 125 62.5 216.5t182 235.5 t179.5 233q30 62 31 128q0 71 -56 125.5t-143 54.5q-84 0 -136 -36q-29 -20 -30 -48q0 -20 16.5 -55t16.5 -58q0 -34 -24 -56.5t-59 -22.5q-34 0 -58.5 28.5t-24.5 68.5z" />
<glyph unicode="@" horiz-adv-x="2003" d="M216 415q0 249 117.5 471t326 339.5t459.5 117.5q217 0 368 -82.5t234 -232.5t83 -335q0 -174 -48.5 -300t-125.5 -214.5t-162.5 -133.5t-197.5 -45q-80 0 -125.5 34.5t-45.5 103.5q0 50 16 108l8 28q-99 -134 -199 -204t-206 -70q-114 0 -177 70.5t-63 180.5 q0 152 92 315.5t243 269.5q117 82 245 82q94 0 146.5 -39t65.5 -93l29 103l95 17q66 11 83 12q34 0 18 -57l-181 -632q-12 -43 -12 -70q0 -23 6.5 -36.5t19 -21t29.5 -7.5q34 0 93 30t120.5 100.5t113 191t51.5 294.5q0 146 -73.5 281t-207 209.5t-335.5 74.5 q-219 0 -406 -106.5t-297 -324.5t-110 -453q0 -219 100 -393.5t275.5 -270.5t375.5 -96q244 0 446.5 136t311.5 390h52q-85 -261 -310 -422t-505 -161q-242 0 -431.5 107.5t-297 296.5t-107.5 437zM687 268q0 -76 32.5 -114t84.5 -38q66 0 130.5 42.5t122.5 115.5 t115.5 203.5t57.5 230.5q0 70 -40.5 114t-105.5 44q-129 0 -263 -205.5t-134 -392.5z" />
<glyph unicode="A" horiz-adv-x="1283" d="M-42 0l15 52q73 12 131.5 56.5t150.5 174.5l780 1060h92l-100 -1087q-6 -60 -8 -87q-3 -33 2 -57t26.5 -42t69.5 -18l-15 -52h-401l15 52q39 5 60.5 27t33.5 60t20 128l16 175h-389l-137 -186q-47 -62 -58.5 -85.5t-11.5 -47.5q0 -26 25.5 -48t98.5 -23l-15 -52h-401z M508 511h344l49 533z" />
<glyph unicode="B" horiz-adv-x="1204" d="M-42 0l15 52q24 0 60 23q56 38 87 145l263 920q17 60 18 83q0 24 -9.5 38.5t-25 22.5t-38.5 8l15 51h443q144 0 223.5 -35t125 -104.5t45.5 -145.5q0 -117 -84 -210t-287 -137q122 -46 179.5 -121.5t57.5 -165.5q0 -102 -51 -192t-132 -140.5t-195 -74.5 q-81 -17 -244 -17h-466zM306 138q0 -24 9.5 -39t25 -22.5t37.5 -7.5h66q158 0 277.5 95.5t119.5 254.5q0 122 -74 190.5t-239 68.5q-31 0 -76 -9l-133 -466q-12 -43 -13 -65zM475 750q65 -2 94 -3q206 0 306.5 90t100.5 225q0 102 -53.5 157.5t-119.5 55.5h-54 q-48 0 -85 -23q-56 -38 -82 -129z" />
<glyph unicode="C" horiz-adv-x="1481" d="M233 508q0 211 113 409.5t309.5 312t400.5 113.5q94 0 210 -45q48 -18 73 -18h3q29 0 43.5 13.5t32.5 49.5h53l-94 -328l-49 14q2 15 2 30q0 42 -14 74q-18 44 -51.5 74.5t-85.5 49t-116 18.5q-170 0 -296 -93q-161 -119 -253 -329q-76 -179 -77 -361q0 -187 109 -302.5 t267 -115.5q131 0 242.5 62t199.5 186l42 -30q-81 -120 -210 -206t-303 -86q-191 0 -309.5 66.5t-180 185t-61.5 256.5z" />
<glyph unicode="D" horiz-adv-x="1429" d="M-42 0l15 52q24 0 60 23q56 38 87 145l263 920q17 60 18 83q0 24 -9.5 38.5t-25 22.5t-38.5 8l15 51h406q238 0 369.5 -63t209.5 -196.5t78 -286.5q0 -126 -45 -253.5t-115.5 -219t-175 -165t-242.5 -116.5t-345 -43h-525zM306 138q0 -24 9.5 -39t25 -22.5t37.5 -7.5h105 q94 0 228 30t219 94q121 92 193 254.5t72 365.5q0 233 -111 347.5t-335 114.5q-48 0 -85 -23q-56 -38 -82 -129l-263 -920q-12 -43 -13 -65z" />
<glyph unicode="E" horiz-adv-x="1293" d="M-42 0l15 52q24 0 60 23q56 38 87 145l263 920q17 60 18 83q0 24 -9.5 38.5t-25 22.5t-38.5 8l15 51h924l-75 -262l-50 13q1 9 1 17q0 44 -26 81q-29 39 -77 57q-65 25 -245 26h-46q-48 0 -85 -23q-56 -38 -82 -129l-109 -382h132q136 0 183.5 19t77.5 80h53l-81 -282 l-49 15q0 39 -17 60t-51.5 30t-135.5 9h-132l-134 -469q-12 -43 -13 -65q0 -24 9.5 -39t25 -22.5t37.5 -7.5h163q195 0 304 56t170 183l50 -14l-84 -294h-1023z" />
<glyph unicode="F" horiz-adv-x="1375" d="M-42 0l15 52q24 0 60 23q56 38 87 145l263 920q17 60 18 83q0 24 -9.5 38.5t-25 22.5t-38.5 8l15 51h1023l-76 -262l-50 13q1 9 1 17q0 44 -26 81q-29 39 -76 57q-65 25 -344 26h-46q-48 0 -85 -23q-56 -38 -82 -129l-109 -382h230q136 0 183.5 19t77.5 80h53l-81 -282 l-49 15q0 39 -16.5 60t-51 30t-136.5 9h-230l-134 -469q-17 -60 -18 -83q0 -24 9.5 -38.5t25 -22t38.5 -7.5l-15 -52h-401z" />
<glyph unicode="G" horiz-adv-x="1497" d="M233 508q0 211 113 409.5t309.5 312t400.5 113.5q94 0 210 -45q48 -18 73 -18h3q29 0 43.5 13.5t32.5 49.5h53l-94 -328l-49 14q2 15 2 30q0 41 -14 74q-17 44 -51 74.5t-86 49t-116 18.5q-170 0 -296 -93q-161 -119 -253 -329q-76 -179 -77 -361q0 -187 109 -302.5 t259 -115.5q107 0 199 61q10 7 19 13l85 298q17 61 18 98q0 38 -27 61t-70.5 27.5t-160.5 4.5l20 69h597l-15 -51q-24 0 -59 -23q-56 -38 -87 -146l-112 -392q-100 -50 -203.5 -72t-224.5 -22q-191 0 -309.5 66.5t-180 185t-61.5 256.5z" />
<glyph unicode="H" horiz-adv-x="1571" d="M-42 0l15 52q24 0 60 23q56 38 87 145l263 920q17 60 18 83q0 24 -9.5 38.5t-25 22.5t-38.5 8l15 51h401l-15 -51q-24 0 -60 -23q-56 -38 -87 -146l-108 -378h622l113 395q17 60 17 83q0 24 -9 38.5t-25 22.5t-38 8l15 51h401l-15 -51q-24 0 -60 -23q-56 -38 -87 -146 l-264 -920q-17 -60 -17 -83q0 -24 9.5 -38.5t25 -22t37.5 -7.5l-14 -52h-401l15 52q24 0 60 23q56 38 86 145l131 456h-622l-135 -473q-17 -60 -18 -83q0 -24 9.5 -38.5t25 -22t38.5 -7.5l-15 -52h-401z" />
<glyph unicode="I" horiz-adv-x="745" d="M-42 0l15 52q24 0 60 23q56 38 87 145l263 920q17 60 18 83q0 24 -9.5 38.5t-25 22.5t-38.5 8l15 51h401l-15 -51q-24 0 -60 -23q-56 -38 -87 -146l-263 -920q-17 -60 -18 -83q0 -24 9.5 -38.5t25 -22t38.5 -7.5l-15 -52h-401z" />
<glyph unicode="J" horiz-adv-x="1248" d="M116 181q0 61 37 100t89 39q44 0 72 -25t28 -64q0 -35 -26 -57q-32 -26 -32 -51q0 -20 19 -37t51 -17q45 0 97 20.5t92 62t73.5 104t65.5 170.5l204 714q17 60 18 83q0 24 -9.5 38.5t-25 22.5t-38.5 8l15 51h401l-15 -51q-24 0 -60 -23q-56 -38 -87 -146l-172 -603 q-51 -177 -100 -260q-66 -119 -189 -189.5t-270 -70.5q-116 0 -177 53t-61 128z" />
<glyph unicode="K" horiz-adv-x="1489" d="M-41 0l15 52q24 0 60 23q56 38 86 145l264 920q17 60 17 83q0 24 -9 38.5t-25 22.5t-38 8l15 51h401l-15 -51q-24 0 -60 -23q-56 -38 -87 -146l-113 -393l545 413q51 39 75 71q16 20 16 38q0 20 -14 29.5t-35 10.5l15 51h400l-15 -51q-77 -6 -123 -19t-99 -50 q-18 -13 -180 -136l-401 -305l344 -532q48 -75 76 -109.5t58.5 -57t66.5 -31.5l-14 -52h-401l15 52q30 11 38.5 29.5t-2.5 45.5t-35 64l-336 518l-145 -506q-17 -60 -17 -83q0 -24 9.5 -38.5t25 -22t37.5 -7.5l-14 -52h-401z" />
<glyph unicode="L" horiz-adv-x="1162" d="M-42 0l15 52q24 0 60 23q56 38 87 145l263 920q17 60 18 83q0 24 -9.5 38.5t-25 22.5t-38.5 8l15 51h401l-15 -51q-24 0 -60 -23q-56 -38 -87 -146l-263 -920q-12 -43 -13 -65q0 -24 9.5 -39t25 -22.5t37.5 -7.5h163q195 0 304 56t170 183l50 -14l-84 -294h-1023z" />
<glyph unicode="M" horiz-adv-x="1836" d="M-42 0l15 52q24 0 60 23q56 38 87 145l263 920q17 60 18 83q0 24 -9.5 38.5t-25 22.5t-38.5 8l15 51h269l128 -1105l793 1105h302l-15 -51q-24 0 -60 -23q-56 -38 -86 -146l-264 -920q-17 -60 -17 -83q0 -24 9 -38.5t25 -22t38 -7.5l-15 -52h-401l15 52q24 0 60 23 q56 38 87 145l265 926l-822 -1146h-85l-127 1095l-255 -891q-17 -60 -17 -84t9 -38.5t25 -22t38 -7.5l-15 -52h-269z" />
<glyph unicode="N" horiz-adv-x="1450" d="M-42 0l15 52q24 0 60 23q56 38 87 145l263 920q17 60 18 83q0 24 -9.5 38.5t-25 22.5t-38.5 8l15 51h233l407 -1032l238 829q17 60 17 83q0 24 -9.5 38.5t-25 22.5t-37.5 8l14 51h269l-15 -51q-24 0 -59 -23q-57 -39 -86 -140l-323 -1129h-72l-443 1123l-263 -917 q-18 -63 -18 -86q0 -24 9 -38.5t25 -22t38 -7.5l-15 -52h-269z" />
<glyph unicode="O" horiz-adv-x="1530" d="M216 449q0 184 87 358t207 292t256.5 181t290.5 63q128 0 226 -55.5t154 -163.5t56 -225q0 -206 -120 -433.5t-313 -346.5t-400 -119q-148 0 -248 66t-148 173.5t-48 209.5zM412 402q0 -134 69.5 -233.5t212.5 -99.5q84 0 167 38.5t173 141.5q113 130 189.5 331.5 t76.5 375.5q0 129 -69 224t-207 95q-94 0 -184.5 -43.5t-180 -149.5t-159.5 -278q-88 -212 -88 -402z" />
<glyph unicode="P" horiz-adv-x="1252" d="M-42 0l15 52q24 0 60 23q56 38 87 145l263 920q17 60 18 83q0 24 -9.5 38.5t-25 22.5t-38.5 8l15 51h466q217 0 319.5 -89t102.5 -219q0 -104 -65 -199t-194 -155.5t-325 -60.5h-69q-70 0 -137 8l-122 -425q-17 -60 -18 -83q0 -24 9.5 -38.5t25 -22t38.5 -7.5l-15 -52 h-401zM460 697q68 -8 138 -8q155 0 243.5 44.5t139 133t50.5 186.5q0 100 -62 161t-187 61h-33q-48 0 -85 -23q-56 -38 -82 -129z" />
<glyph unicode="Q" horiz-adv-x="1530" d="M-40 -338q333 108 555 357q-57 16 -103 47q-100 66 -148 173.5t-48 209.5q0 184 87 358t207 292t256.5 181t290.5 63q128 0 226 -55.5t154 -163.5t56 -225q0 -206 -120 -433.5t-313 -346.5t-400 -119q-36 0 -69 4q-100 -127 -226 -214q97 0 199 -32.5t187 -32.5 q91 0 155 22t135 97l31 -41q-72 -104 -183 -166.5t-243 -62.5q-88 0 -280 50q-134 36 -192 36q-70 0 -183 -40zM412 402q0 -134 69.5 -233.5t212.5 -99.5q84 0 167 38.5t173 141.5q113 130 189.5 331.5t76.5 375.5q0 129 -69 224t-207 95q-94 0 -184.5 -43.5t-180 -149.5 t-159.5 -278q-88 -212 -88 -402z" />
<glyph unicode="R" horiz-adv-x="1231" d="M-42 0l15 52q24 0 60 23q56 38 87 145l263 920q17 60 18 83q0 24 -9.5 38.5t-25 22.5t-38.5 8l15 51h466q217 0 319.5 -89t102.5 -219q0 -104 -65 -199t-194 -155q-88 -42 -208 -55l117 -353q29 -87 48.5 -127t52 -64.5t79.5 -29.5l-15 -52h-283l-205 620q-59 1 -117 8 l-122 -425q-17 -60 -18 -83q0 -24 9.5 -38.5t25 -22t38.5 -7.5l-15 -52h-401zM460 697q68 -8 138 -8q155 0 243.5 44.5t139 133t50.5 186.5q0 100 -61.5 161t-187.5 61h-33q-48 0 -85 -23q-56 -38 -82 -129z" />
<glyph unicode="S" horiz-adv-x="1191" d="M57 0l131 463l50 -15q-6 -42 -6 -78t6 -67q20 -111 107.5 -172.5t211.5 -61.5q106 0 171 66.5t65 151.5q0 66 -30 119q-25 45 -236 276q-98 106 -131 177q-35 74 -35 158q0 138 101 232t258 94q52 0 100 -10q29 -5 107 -38q67 -27 99 -27q26 0 46.5 14t45.5 61h54 l-121 -425l-50 13q12 70 12 111q-1 82 -73 155t-195 73q-99 0 -160.5 -58t-61.5 -134q0 -66 39 -126.5t181 -214.5t183.5 -230t41.5 -163q0 -106 -47.5 -181t-140 -119t-223.5 -44q-66 0 -111.5 10t-144.5 46q-53 20 -95 20q-64 0 -95 -76h-54z" />
<glyph unicode="T" horiz-adv-x="1481" d="M370 1094l72 249h1029l-75 -262l-50 13q2 14 2 26q0 38 -14 68q-18 40 -66 63.5t-154 23.5h-75l-307 -1072q-17 -60 -18 -83q0 -24 9.5 -38.5t25 -22t37.5 -7.5l-14 -52h-401l15 52q24 0 60 23q56 38 86 145l303 1055h-76q-106 0 -163 -23t-101 -63t-75 -108z" />
<glyph unicode="U" horiz-adv-x="1571" d="M192 374q0 61 13 127q8 44 41 159l137 480q17 60 18 83q0 24 -9.5 38.5t-25 22.5t-38.5 8l15 51h401l-15 -51q-24 0 -60 -23q-56 -38 -87 -146l-132 -463q-37 -128 -45 -170q-11 -61 -12 -116q0 -135 89 -210t239 -75q84 0 161.5 37.5t140 115t102.5 181t73 220.5 l143 497q17 60 17 83q0 24 -9.5 38.5t-25 22.5t-37.5 8l15 51h269l-15 -51q-24 0 -60 -23q-56 -38 -87 -146l-142 -494q-70 -242 -132 -357.5t-176 -193.5t-262 -78q-256 0 -380 106.5t-124 267.5z" />
<glyph unicode="V" horiz-adv-x="1543" d="M309 0l113 1145q2 18 2 34q0 28 -6 49q-10 33 -33.5 47t-56.5 17l15 51h401l-15 -51q-24 0 -52 -18q-46 -30 -58 -135l-82 -829l615 834q37 51 37 83.5t-15 47t-48 17.5l15 51h401l-15 -51q-73 0 -140 -25q-79 -28 -181 -166l-811 -1101h-86z" />
<glyph unicode="W" horiz-adv-x="2288" d="M309 0l113 1145q2 18 2 34q0 28 -6 49q-10 33 -33.5 47t-56.5 17l15 51h401l-15 -51q-24 0 -52 -18q-47 -30 -58 -138l-82 -826l761 1033h86l-102 -1033l614 834q38 52 38 85q0 31 -15 45.5t-48 17.5l15 51h400l-14 -51q-73 0 -140 -25q-79 -28 -181 -166l-811 -1101h-87 l103 1033l-761 -1033h-86z" />
<glyph unicode="X" horiz-adv-x="1612" d="M-42 0l15 52q57 0 131 36q106 52 256 203l334 339l-144 511q-13 48 -27 76q-15 28 -31.5 43.5t-38.5 23.5t-44 8l15 51h400l-15 -51q-33 -5 -50 -39q-13 -25 -13 -57q0 -26 8 -56l99 -349l314 318q74 75 81 119q5 29 -12 46.5t-41 17.5l15 51h401l-15 -51q-57 0 -131 -36 q-106 -52 -256 -203l-335 -339l144 -512q13 -48 28 -75q14 -29 30.5 -44.5t38.5 -23t44 -7.5l-15 -52h-400l15 52q33 5 51 39q12 23 12 54q0 27 -9 59l-97 348l-314 -318q-74 -75 -82 -118q-5 -30 12.5 -47t41.5 -17l-15 -52h-401z" />
<glyph unicode="Y" horiz-adv-x="1531" d="M328 1292l15 51h401l-15 -51q-33 -5 -51 -39q-12 -24 -12 -54q0 -24 7 -52l139 -495l330 457q45 62 45 107q0 8 -2 16q-7 29 -26.5 44.5t-43.5 15.5l15 51h400l-14 -51q-57 0 -122 -35q-97 -53 -205 -201l-353 -489l-32 -44l-92 -320q-17 -60 -17 -83q0 -24 9.5 -38.5 t25 -22t37.5 -7.5l-15 -52h-401l15 52q24 0 60 23q56 38 87 145l109 380l-153 545q-13 45 -27 72q-15 28 -31 43.5t-38 23.5t-45 8z" />
<glyph unicode="Z" horiz-adv-x="1399" d="M134 0l19 70l967 1203q1 2 -1 2h-360q-106 0 -163 -23t-101 -63t-75 -108l-50 13l72 249h951l-19 -69l-967 -1204q-1 -2 1 -1h360q106 0 163.5 23t101.5 63t75 108l50 -14l-72 -249h-952z" />
<glyph unicode="[" horiz-adv-x="761" d="M-66 -426l508 1769h474l-19 -68h-271l-468 -1632h270l-18 -69h-476z" />
<glyph unicode="\" horiz-adv-x="839" d="M437 1327l93 12l176 -1339l-92 -12z" />
<glyph unicode="]" horiz-adv-x="843" d="M-164 -426l20 69h270l468 1632h-270l19 68h475l-508 -1769h-474z" />
<glyph unicode="^" horiz-adv-x="1149" d="M238 634l428 709h30l421 -709h-109l-329 550l-328 -550h-113z" />
<glyph unicode="_" horiz-adv-x="1281" d="M23 -117h1065v-94h-1065v94z" />
<glyph unicode="`" horiz-adv-x="491" d="M328 1343h238l89 -308h-52z" />
<glyph unicode="a" d="M125 251q0 152 92.5 315.5t242.5 269.5q117 82 245 82q94 0 146.5 -39t66.5 -93l29 103l95 17q66 11 83 12q23 0 23 -26q0 -12 -5 -31l-181 -632q-20 -71 -21 -90q0 -16 7 -23.5t20 -7t30 22.5l42 -31q-35 -48 -87 -74t-111 -26q-54 0 -80 26t-26 76q0 49 27 144l8 28 q-99 -134 -199 -204t-206 -70q-114 0 -177.5 70.5t-63.5 180.5zM335 268q0 -76 32.5 -114t84.5 -38q66 0 130 42.5t122.5 115.5t116 203.5t57.5 230.5q0 70 -41 114t-105 44q-129 0 -263 -205.5t-134 -392.5z" />
<glyph unicode="b" horiz-adv-x="1094" d="M87 106l274 957q34 120 35 141q0 26 -15.5 36t-41.5 7l-9 51l191 33q70 12 88 12q25 0 25 -27q0 -12 -5 -30l-154 -537q92 93 167.5 131t160.5 38q138 0 208 -72.5t70 -198.5q0 -164 -86.5 -320.5t-225 -241.5t-318.5 -85q-150 0 -364 106zM289 100q98 -48 173 -48 q104 0 194.5 68t151 217t60.5 292q0 91 -36 142.5t-100 51.5q-84 0 -189 -82q-97 -93 -128 -201z" />
<glyph unicode="c" horiz-adv-x="979" d="M120 289q0 152 85 298.5t228.5 238.5t325.5 92q108 0 161.5 -49t53.5 -115q0 -60 -36 -103q-29 -36 -70 -36q-30 0 -51 20t-21 48q0 20 8 37t31 38.5t28 31.5t5 21q0 20 -19 34q-29 20 -81 20q-97 0 -192.5 -64.5t-162.5 -190.5q-81 -151 -81 -305q0 -102 55 -160.5 t148 -58.5q164 0 319 184l40 -34q-197 -236 -458 -236q-157 0 -236.5 77.5t-79.5 211.5z" />
<glyph unicode="d" horiz-adv-x="1307" d="M125 251q0 152 92.5 315.5t242.5 269.5q117 82 245 82q94 0 146.5 -39t66.5 -93l79 277q34 120 34 141q0 26 -15.5 36t-40.5 7l-9 51l191 33q70 12 87 12q26 0 26 -28q0 -12 -5 -29l-303 -1057q-20 -71 -21 -90q0 -16 7 -23.5t20 -7t30 22.5l42 -31q-35 -48 -87 -74 t-111 -26q-54 0 -80 26t-26 76q0 49 27 144l8 28q-99 -134 -199 -204t-206 -70q-114 0 -177.5 70.5t-63.5 180.5zM335 268q0 -76 32.5 -114t84.5 -38q66 0 130 42.5t122.5 115.5t116 203.5t57.5 230.5q0 70 -41 114t-105 44q-129 0 -263 -205.5t-134 -392.5z" />
<glyph unicode="e" horiz-adv-x="1053" d="M137 289q0 152 84.5 298.5t228 238.5t361.5 92q128 0 184 -47t56 -104q0 -78 -65 -151q-86 -98 -254 -158q-111 -41 -377 -67l-1 -4q-6 -40 -6 -82q0 -102 55 -160.5t148 -58.5q164 0 319 184l40 -34q-197 -236 -458 -236q-157 0 -236 77.5t-79 211.5zM365 442 q145 17 236 59q122 54 185.5 129.5t63.5 144.5q0 42 -26 66t-71 24q-66 0 -161.5 -64.5t-162.5 -190.5q-45 -84 -64 -168z" />
<glyph unicode="f" horiz-adv-x="1388" d="M11 -316q0 41 25 64.5t60 23.5q30 0 48 -18.5t18 -43.5t-20 -43q-16 -14 -16 -23q0 -7 7 -12q9 -7 29 -6q44 0 91 29t79 75.5t69 142.5q17 44 82 273l202 703h-115l20 69q25 0 51 9t47 34t57 97q47 94 88 144q59 71 131.5 106t190.5 35q98 0 157 -48q40 -37 40 -81 q0 -43 -22.5 -67.5t-56.5 -24.5q-33 0 -52 18t-19 46q0 20 13 43.5t13 31.5q0 13 -9 20q-13 11 -48 11q-52 0 -90 -31q-53 -42 -95 -121q-30 -53 -78 -222h161l-20 -69h-160l-133 -463q-80 -280 -142 -420q-87 -198 -227 -309q-105 -83 -240 -83q-57 0 -95 30q-40 32 -41 80 z" />
<glyph unicode="g" horiz-adv-x="1214" d="M49 -207q0 43 28.5 88.5t93.5 90.5q53 36 129 74q-46 36 -46 79q0 39 40 83.5t170 98.5q-109 20 -172.5 91t-63.5 157q0 138 123 250.5t347 112.5q146 0 230 -60h277l-20 -69h-190q41 -60 41 -136q0 -129 -110 -233q-112 -102 -308 -113q-105 -32 -158 -75 q-20 -16 -19 -33q0 -20 18 -36t90 -34l192 -44q160 -38 214 -96q48 -53 48 -114q0 -81 -60 -149t-175.5 -110t-271.5 -42q-158 0 -259 33.5t-144.5 83t-43.5 102.5zM207 -187q0 -66 59 -108q85 -61 250 -61q142 0 242.5 48t100.5 124q0 39 -37 74t-145 56q-58 12 -308 74 q-80 -37 -121 -94t-41 -113zM427 524q0 -77 47.5 -122.5t113.5 -45.5q52 0 100.5 26t82 76.5t54 129t20.5 112.5q0 79 -45.5 122.5t-116.5 43.5q-112 0 -184 -110t-72 -232z" />
<glyph unicode="h" horiz-adv-x="1069" d="M80 83l281 980q34 120 35 141q0 26 -15.5 36t-41.5 7l-9 51l191 33q70 12 88 12q25 0 25 -27q0 -12 -5 -30l-234 -817q182 275 282 362t204 87q92 0 124 -33t32 -85q0 -51 -31 -159l-118 -412q-20 -71 -20 -90q0 -16 6.5 -23.5t20 -7.5t29.5 23l42 -31q-35 -48 -87 -74 t-111 -26q-54 0 -80 26t-26 76q0 49 27 144l113 395q22 77 22 116q0 20 -13 32t-32 12q-28 0 -66 -27q-73 -52 -148.5 -153.5t-170.5 -255.5q-48 -81 -81 -181l-52 -184h-118q-68 0 -68 52q0 13 5 31z" />
<glyph unicode="i" horiz-adv-x="630" d="M100 102q0 49 27 144l113 395q34 117 34 137q0 26 -16 36t-41 7l-9 51l191 33q70 12 88 13q25 0 25 -27q0 -12 -5 -30l-181 -632q-20 -71 -20 -90q0 -16 6.5 -23.5t20 -7.5t29.5 23l42 -31q-35 -48 -87 -74t-111 -26q-54 0 -80 26t-26 76zM408 1212q0 42 28 70.5t70 28.5 t70.5 -28.5t28.5 -70.5q0 -40 -29.5 -69t-69.5 -29q-41 0 -69.5 29t-28.5 69z" />
<glyph unicode="j" horiz-adv-x="1040" d="M36 -316q0 41 25 64.5t59 23.5q30 0 48.5 -18.5t18.5 -43.5t-21 -43q-16 -14 -15 -23q0 -7 6 -12q9 -7 30 -6q48 0 92.5 29.5t76.5 76.5t68 141q16 46 84 273l142 495q33 114 33 136q0 27 -15.5 37t-40.5 7l-9 51l191 33q70 12 87 13q26 0 26 -28q0 -12 -5 -29l-136 -475 q-80 -280 -142 -420q-85 -198 -226 -309q-105 -83 -241 -83q-57 0 -96 30q-40 32 -40 80zM818 1212q0 42 28 70.5t70 28.5t70 -28.5t28 -70.5q0 -40 -29 -69t-69 -29q-41 0 -69.5 29t-28.5 69z" />
<glyph unicode="k" horiz-adv-x="1192" d="M80 83l281 980q34 120 35 141q0 26 -15.5 36t-41.5 7l-9 51l191 33q70 12 88 12q25 0 25 -27q0 -12 -5 -30l-228 -794q-9 -31 38 1l366 257q57 40 68.5 53t11.5 26t-9 21.5t-21.5 12t-30.5 3.5l15 52h345l-15 -52q-58 -4 -107 -19t-95 -47l-281 -197q20 -79 64 -246 l41 -160q20 -79 69 -81q30 -2 53 22l37 -36q-43 -47 -87 -74.5t-103 -27.5q-74 0 -109 44.5t-64 157.5q-68 261 -76 279l-133 -94q-7 -6 -12 -18l-105 -369h-118q-68 0 -68 52q0 13 5 31z" />
<glyph unicode="l" horiz-adv-x="679" d="M100 102q0 49 27 144l234 817q34 120 35 141q0 26 -15.5 36t-41.5 7l-9 51l191 33q70 12 88 12q25 0 25 -27q0 -12 -5 -30l-303 -1057q-20 -71 -20 -90q0 -16 6.5 -23.5t20 -7.5t29.5 23l42 -31q-35 -48 -87 -74t-111 -26q-54 0 -80 26t-26 76z" />
<glyph unicode="m" horiz-adv-x="1561" d="M80 83l160 558q34 117 34 137q0 26 -16 36t-41 7l-9 51l191 33q70 12 88 13q25 0 25 -27q0 -12 -5 -30l-111 -392q85 159 163 261q80 106 141 147t146 41q92 0 124 -33t32 -85q0 -51 -31 -159l-49 -172q86 159 163 261q80 106 141.5 147t146.5 41q92 0 124 -33t32 -85 q0 -51 -32 -159l-117 -412q-20 -71 -21 -90q0 -16 7 -23.5t20 -7.5t30 23l41 -31q-35 -48 -86.5 -74t-110.5 -26q-54 0 -80.5 26t-26.5 76t27 144l114 395q22 77 22 116q0 20 -13.5 32t-31.5 12q-28 0 -63 -22q-60 -39 -153.5 -179.5t-141 -232.5t-79.5 -204l-47 -163h-118 q-67 0 -67 51q0 14 5 32l160 558q22 77 22 116q0 20 -13 32t-32 12q-28 0 -62 -22q-60 -39 -154 -179.5t-141.5 -233t-79.5 -203.5l-46 -163h-118q-68 0 -68 52q0 13 5 31z" />
<glyph unicode="n" horiz-adv-x="1069" d="M80 83l160 558q34 117 34 137q0 26 -16 36t-41 7l-9 51l191 33q70 12 88 13q25 0 25 -27q0 -12 -5 -30l-112 -392q182 275 282 362t204 87q92 0 124 -33t32 -85q0 -51 -31 -159l-118 -412q-20 -71 -20 -90q0 -16 6.5 -23.5t20 -7.5t29.5 23l42 -31q-35 -48 -87 -74 t-111 -26q-54 0 -80 26t-26 76t27 144l113 395q22 77 22 116q0 20 -13 32t-32 12q-28 0 -66 -27q-73 -52 -148.5 -153.5t-170.5 -255.5q-48 -81 -81 -181l-52 -184h-118q-68 0 -68 52q0 13 5 31z" />
<glyph unicode="o" horiz-adv-x="1082" d="M138 311q0 143 84 291t220 232t278 84q155 0 240.5 -87t85.5 -225q0 -143 -83.5 -291t-220 -231.5t-278.5 -83.5q-155 0 -240.5 87t-85.5 224zM332 244q0 -93 43.5 -142.5t103.5 -49.5q127 0 250.5 206t123.5 415q0 93 -44 143t-103 50q-128 0 -251 -206t-123 -416z" />
<glyph unicode="p" horiz-adv-x="1299" d="M0 -426l15 52q24 0 60 23q56 38 86 145l243 847q33 114 33 136q0 27 -15.5 37t-40.5 7l-9 51l191 33q70 12 87 13q26 0 26 -28q0 -12 -5 -29l-49 -171q108 127 188.5 177.5t177.5 50.5q134 0 201 -70q18 -19 29 -40q34 -60 35 -142q0 -221 -177.5 -443.5t-465.5 -222.5 q-50 0 -93.5 10t-79.5 33l-77 -266q-17 -60 -17 -83q0 -24 9.5 -38.5t25 -22t37.5 -7.5l-14 -52h-401zM460 123q61 -71 165 -71q67 0 120.5 29t104.5 85.5t93.5 129.5t73 179t30.5 193q0 79 -36 121.5t-98 42.5q-90 0 -208 -131.5t-159 -277.5z" />
<glyph unicode="q" d="M125 251q0 152 92.5 315.5t242.5 269.5q117 82 245 82q94 0 146.5 -39t66.5 -93l29 103l95 17q66 11 83 12q23 0 23 -26q0 -13 -5 -31l-303 -1058q-20 -71 -21 -90q0 -16 7 -23.5t20 -7t30 22.5l42 -31q-35 -48 -87 -74t-111 -26q-54 0 -80 26t-26 76t27 144l130 454 q-99 -134 -199 -204t-206 -70q-114 0 -177.5 70.5t-63.5 180.5zM335 268q0 -76 32.5 -114t84.5 -38q66 0 130 42.5t122.5 115.5t116 203.5t57.5 230.5q0 70 -41 114t-105 44q-129 0 -263 -205.5t-134 -392.5z" />
<glyph unicode="r" horiz-adv-x="930" d="M80 83l160 558q34 117 34 137q0 26 -16 36t-41 7l-9 51l191 33q70 12 88 13q25 0 25 -27q0 -12 -5 -30l-112 -392q165 265 302 380q83 69 134 69q33 0 54.5 -19.5t21.5 -56.5q0 -67 -37 -124q-29 -46 -69 -46q-28 0 -45 14.5t-17 40.5q0 16 -7 23q-8 7 -21 8 q-13 0 -30 -9q-25 -13 -78 -76q-83 -97 -166 -231q-55 -94 -89 -177q-39 -96 -46 -119l-41 -146h-118q-68 0 -68 52q0 13 5 31z" />
<glyph unicode="s" horiz-adv-x="816" d="M57 0l90 315h53q-7 -46 -7 -84q0 -82 33 -121q48 -58 151 -58q71 0 113 30.5t42 87.5q0 34 -11 62q-29 65 -106.5 149.5t-115.5 150.5t-38 132q0 117 69 185.5t184 68.5q31 0 58 -5q14 -3 64.5 -22.5t68.5 -19.5q43 0 58 47h53l-85 -298h-54q5 36 5 67q0 77 -30 119 q-42 60 -120 61q-61 0 -97.5 -33.5t-36.5 -81.5q0 -33 14.5 -63t62.5 -83q129 -141 167 -211.5t38 -133.5q0 -128 -82 -194.5t-221 -66.5q-70 0 -164 31q-33 11 -51 12q-33 0 -52 -43h-53z" />
<glyph unicode="t" horiz-adv-x="720" d="M100 111q0 41 27 135l113 395q34 117 34 137q0 26 -16 36t-41 7l-9 51q106 29 188 100.5t150 202.5h51l-74 -257h197l-20 -69h-196l-178 -620q-21 -73 -21 -101q0 -18 8 -26.5t22 -8.5q21 0 62 35q24 20 65 71l42 -31q-39 -57 -101.5 -112.5t-157.5 -55.5 q-76 0 -110.5 30.5t-34.5 80.5z" />
<glyph unicode="u" horiz-adv-x="1110" d="M105 118q0 51 31 159l104 364q34 117 34 137q0 26 -16 36t-41 7l-9 51l191 33q70 12 88 13q25 0 25 -27q0 -12 -5 -30l-167 -584q-22 -77 -22 -116q0 -20 13 -32.5t32 -12.5q28 0 66 27q73 52 148.5 153.5t170.5 255.5q48 81 81 182l52 184h118q68 0 68 -52q0 -14 -5 -31 l-174 -606q-20 -71 -20 -90q0 -16 6.5 -23.5t20 -7t29.5 22.5l42 -31q-35 -48 -87 -74t-111 -26q-54 0 -80 26t-26 76q0 49 27 144l58 203q-182 -275 -282 -362t-204 -87q-92 0 -124 33t-32 85z" />
<glyph unicode="v" horiz-adv-x="1078" d="M209 872l154 27q20 4 39 4q79 0 122 -66q51 -80 79 -375l25 -260q1 -2 10 7q230 229 291 421q12 39 12 70t-45.5 63t-45.5 75q0 35 24.5 57.5t60.5 22.5q41 0 73 -34t32 -85q0 -50 -19 -108q-83 -257 -346 -518l-174 -173h-52l-39 409q-14 147 -32 243t-60 136 q-36 35 -84 34q-8 0 -16 -1z" />
<glyph unicode="w" horiz-adv-x="1579" d="M209 872l154 27q20 4 39 4q79 0 122 -66q51 -80 79 -375l17 -178l379 634h58q3 0 4 -5l67 -711q1 -2 11 7q230 229 291 421q12 39 12 70t-46 63t-46 75q0 35 25 57.5t60 22.5q41 0 73 -34t32 -85q0 -50 -19 -108q-83 -257 -345 -518l-175 -173h-52l-59 634l-381 -634h-60 l-39 409q-14 147 -32 243t-60 136q-36 35 -84 34q-8 0 -16 -1z" />
<glyph unicode="x" horiz-adv-x="1086" d="M84 84q0 34 22 55.5t54 21.5q34 0 68 -32q25 -23 39 -23q11 0 30 15q47 38 125 160l69 107l-126 304q-33 80 -67 108q-27 23 -63 22q-9 0 -18 -1l-9 51l167 29q14 3 27 2q90 0 139 -121l79 -191l26 41q102 160 167 222q66 64 129 64q48 0 74 -22q30 -26 30 -62 q0 -34 -21.5 -55.5t-53.5 -21.5q-34 0 -68 32q-25 23 -40 23q-11 0 -30 -16q-47 -38 -122 -155l-67 -106l110 -267q21 -52 40.5 -88.5t41.5 -53.5t47 -17t41 22l42 -31q-35 -48 -87 -74t-101 -26q-72 0 -123.5 58t-80.5 128l-60 146l-30 -47q-102 -159 -166 -221 q-66 -64 -130 -64q-48 0 -73 21q-30 26 -31 63z" />
<glyph unicode="y" horiz-adv-x="1241" d="M29 -336q0 44 29.5 70.5t66.5 26.5q47 0 73 -36t43 -36q11 0 27 10q56 37 150 130l188 187q5 5 4 11l-36 382q-14 147 -32.5 242.5t-60.5 136.5q-36 34 -83 34q-8 0 -16 -1l-9 51l154 27q20 4 39 4q78 0 122 -66q51 -80 79 -375l24 -251v-9q250 265 302 428q12 39 12 70 t-46 63t-46 75q0 35 25 57.5t61 22.5q41 0 72.5 -34t31.5 -85q0 -50 -18 -108q-83 -257 -456 -627q-374 -370 -454.5 -430t-140.5 -60q-46 0 -75.5 24t-29.5 66z" />
<glyph unicode="z" horiz-adv-x="1004" d="M92 0l14 52l688 715h-279q-86 0 -122 -11.5t-59 -33.5t-35 -56h-52l72 252h657l-14 -52l-688 -715h279q86 0 122 11.5t59 33.5t35 55h52l-72 -251h-657z" />
<glyph unicode="{" horiz-adv-x="858" d="M177 -156q0 106 89.5 244t71.5 218q-11 44 -47 81t-108 53l11 40q97 11 172 62t103 117q20 45 27 176.5t58.5 231.5t165.5 179t293 97l-15 -51q-103 -9 -169 -59t-92 -110t-33 -183t-45.5 -219t-124.5 -159.5t-226 -102.5q97 -38 146.5 -106.5t49.5 -150.5 q0 -83 -74 -221.5t-74 -202.5q0 -61 35.5 -103.5t128.5 -48.5l-15 -52q-181 11 -254.5 83.5t-73.5 186.5z" />
<glyph unicode="|" horiz-adv-x="790" d="M442 -426v1769h94v-1769h-94z" />
<glyph unicode="}" horiz-adv-x="858" d="M-164 -426l14 49q104 11 169.5 61.5t91.5 110.5t33 183t46 218.5t124.5 159t226.5 103.5q-97 38 -146.5 106t-49.5 150q0 83 74 222t74 203q0 61 -36.5 103.5t-128.5 48.5l15 51q181 -11 255 -83t74 -187q0 -105 -90 -243.5t-72 -218.5q11 -44 47.5 -80.5t108.5 -52.5 l-11 -41q-98 -11 -172.5 -62t-103.5 -117q-19 -44 -26.5 -175.5t-59 -231.5t-165 -179.5t-292.5 -97.5z" />
<glyph unicode="~" horiz-adv-x="1286" d="M224 535q6 134 73.5 204.5t157.5 70.5q43 0 90 -14q103 -29 271 -101t237 -72q74 0 124 48t53 137h51q-4 -129 -73 -202t-169 -73q-46 0 -98.5 15.5t-272.5 104.5q-152 63 -217 63q-69 0 -116.5 -42.5t-59.5 -138.5h-51z" />
<glyph unicode="&#xa1;" horiz-adv-x="622" d="M101 154q48 169 173 466q57 143 77 200.5t72 226.5h69q-48 -188 -61 -248t-41 -209q-57 -336 -101 -491q-19 -66 -55 -86q-22 -13 -47 -13q-13 0 -26 4q-39 11 -59 47.5t-1 102.5zM417 1246q0 40 28.5 68.5t70.5 28.5q40 0 69 -28.5t29 -68.5q0 -42 -29 -71t-69 -29 q-42 0 -70.5 29t-28.5 71z" />
<glyph unicode="&#xa2;" horiz-adv-x="1037" d="M161 289q0 152 85 298.5t228 238.5q110 70 244 87l134 450l66 -20l-127 -425h9q108 0 161.5 -49t53.5 -115q0 -60 -36 -103q-29 -36 -71 -36q-30 0 -50.5 20t-20.5 48q0 20 8 37t31 38.5t27.5 31.5t4.5 21q0 20 -18 34q-29 20 -81 20q-17 0 -34 -2l-232 -775q16 -2 33 -2 q164 0 319 184l40 -34q-181 -217 -417 -234l-135 -448l-66 20l128 427q-134 7 -204 77q-79 77 -80 211zM373 305q0 -102 55 -160q21 -24 49 -38l219 736q-40 -16 -79 -43q-96 -65 -163 -190q-81 -151 -81 -305z" />
<glyph unicode="&#xa3;" horiz-adv-x="1108" d="M97 113q0 76 53 119t133 43q38 0 75 -5q4 21 8 45q12 70 58 340h-180l23 79h170q1 6 2 11q58 349 191 488q107 111 262 110q99 0 157.5 -44t58.5 -104q0 -39 -23.5 -63t-58.5 -24q-38 0 -60 25q-18 20 -26.5 67.5t-26.5 67.5q-20 24 -57 24q-36 0 -65 -30 q-44 -48 -84 -174q-20 -59 -70 -354h244l-23 -79h-235q-51 -292 -92 -394q-7 -16 -13 -31q30 -11 60 -26q79 -38 127.5 -51.5t88.5 -13.5q41 0 77 19.5t55 56.5h51q-52 -107 -126 -161t-169 -54q-60 0 -113 24q-46 20 -128 78q-11 -14 -22 -27q-67 -75 -199 -75 q-57 0 -90 32t-33 81zM147 113q0 -29 18 -49t55 -20q38 0 69 37q29 35 46 89q-53 26 -97 27q-38 0 -64.5 -22.5t-26.5 -61.5z" />
<glyph unicode="&#xa4;" horiz-adv-x="1425" d="M369 253l141 139q-102 120 -102 280q0 161 101 278l-140 140l55 56l140 -141q118 102 279 102t278 -101l140 139l56 -55l-141 -138q102 -120 102 -280q0 -161 -101 -279l139 -139l-54 -57l-139 141q-120 -102 -280 -101q-161 0 -279 101l-139 -140zM487 672 q0 -147 104 -253q105 -104 252 -104t252 104q104 105 104 253q0 147 -104 252q-105 104 -252 104t-252 -104q-104 -105 -104 -252z" />
<glyph unicode="&#xa5;" horiz-adv-x="1531" d="M163 371l20 69h393l46 160l-13 46h-367l19 68h329l-121 431q-13 45 -27 72q-15 28 -31 43.5t-38 23.5t-45 8l15 51h401l-15 -51q-33 -5 -51 -39q-22 -42 -5 -106l139 -495l330 457q53 74 43 123q-7 29 -26.5 44.5t-43.5 15.5l15 51h400l-14 -51q-57 0 -122 -35 q-97 -53 -205 -201l-247 -342h310l-20 -68h-340l-56 -79l-32 -44l-24 -83h393l-20 -69h-393l-48 -168q-17 -60 -17 -83q0 -24 9.5 -38.5t25 -22t37.5 -7.5l-15 -52h-401l15 52q24 0 60 23q56 38 87 145l43 151h-393z" />
<glyph unicode="&#xa6;" horiz-adv-x="790" d="M442 310h94v-736h-94v736zM442 608v735h94v-735h-94z" />
<glyph unicode="&#xa7;" horiz-adv-x="1089" d="M5 -197q0 35 20.5 58t51.5 23q29 0 49.5 -23.5t30.5 -86.5q14 -73 59 -111q43 -38 108 -37q92 0 141 57t40 135q-10 80 -81 169q-129 163 -170 269.5t-41 203.5q0 126 68.5 204.5t178.5 78.5q42 0 94 -21q-70 96 -93.5 157t-23.5 127q0 141 97.5 239t241.5 98 q129 0 210 -71.5t81 -157.5q0 -35 -20.5 -57.5t-51.5 -22.5q-29 0 -49.5 23.5t-31.5 86.5q-14 73 -59 110q-43 38 -108 38q-92 0 -141 -57.5t-40 -135.5q10 -80 81 -168q129 -163 170.5 -269.5t41.5 -204.5q0 -126 -68.5 -204.5t-178.5 -78.5q-42 0 -94 22 q70 -96 93.5 -157.5t23.5 -126.5q0 -141 -98 -239.5t-241 -98.5q-129 0 -210 71.5t-81 157.5zM301 526q0 -91 109 -195.5t217 -104.5q56 0 99.5 42t43.5 124q0 91 -109 195t-216 104q-56 0 -100 -41.5t-44 -123.5z" />
<glyph unicode="&#xa8;" horiz-adv-x="540" d="M222 1132q0 41 28.5 70t68.5 29q41 0 70.5 -29t29.5 -70q0 -40 -29.5 -68.5t-70.5 -28.5q-40 0 -68.5 28.5t-28.5 68.5zM547 1132q0 41 29 70t70 29q42 0 70 -29t28 -70q0 -40 -28.5 -68.5t-69.5 -28.5q-40 0 -69.5 28.5t-29.5 68.5z" />
<glyph unicode="&#xa9;" horiz-adv-x="1632" d="M279 672q0 279 196.5 475t474.5 196q279 0 475.5 -196.5t196.5 -474.5q0 -279 -196.5 -475.5t-475.5 -196.5t-475 196.5t-196 475.5zM347 672q0 -250 176.5 -426.5t426.5 -176.5t426.5 176.5t176.5 426.5t-176.5 426.5t-426.5 176.5t-426.5 -176.5t-176.5 -426.5z M498 663q0 190 139 324t355 134q45 0 75.5 -6t108.5 -31q25 -8 36 -8q16 0 26.5 8.5t22.5 36.5h39l20 -278h-39q-35 118 -113 175.5t-187 57.5q-81 0 -144.5 -33.5t-104.5 -89.5q-30 -43 -49.5 -113.5t-19.5 -148.5q0 -211 90 -310t238 -99q193 0 309 160l37 -18 q-138 -202 -380 -202q-198 0 -328.5 128.5t-130.5 312.5z" />
<glyph unicode="&#xaa;" horiz-adv-x="963" d="M340 943q0 91 55.5 189t145.5 162q70 49 148 49q57 0 88.5 -23t39.5 -55l18 61l56 11q40 7 50 6q20 0 11 -34l-109 -380q-12 -43 -12 -54q0 -10 4.5 -14.5t12 -4t17.5 13.5l25 -19q-21 -28 -52 -44t-66 -16q-33 0 -49 16t-16 46q0 29 16 87l5 17q-60 -80 -119.5 -123 t-123.5 -43q-69 0 -107 43t-38 109zM466 953q0 -46 19.5 -69t51.5 -23q39 0 78 25.5t73.5 69.5t69.5 122.5t35 138.5q0 43 -24.5 69t-63.5 26q-77 0 -158 -123.5t-81 -235.5z" />
<glyph unicode="&#xab;" horiz-adv-x="1089" d="M188 456l452 462h51l-323 -462l127 -456h-69zM568 456l452 462h52l-324 -462l127 -456h-69z" />
<glyph unicode="&#xac;" horiz-adv-x="1371" d="M306 778v94h1065v-401h-94v307h-971z" />
<glyph unicode="&#xad;" horiz-adv-x="812" d="M167 386l42 146h525l-42 -146h-525z" />
<glyph unicode="&#xae;" horiz-adv-x="1632" d="M279 672q0 279 196.5 475t474.5 196q279 0 475.5 -196.5t196.5 -474.5q0 -279 -196.5 -475.5t-475.5 -196.5t-475 196.5t-196 475.5zM347 672q0 -250 176.5 -426.5t426.5 -176.5t426.5 176.5t176.5 426.5t-176.5 426.5t-426.5 176.5t-426.5 -176.5t-176.5 -426.5z M552 243v33q48 0 68 11t29 33q7 16 6 93v518q0 74 -3 86q-7 23 -25 35.5t-63 12.5v35h383q143 0 218.5 -64.5t75.5 -157.5q0 -75 -50.5 -132t-168.5 -87l206 -296q38 -52 68 -72q19 -12 52 -15v-33h-182l-292 402h-75v-307q7 -33 29 -47.5t88 -14.5v-33h-364zM799 687 q117 0 171 22.5t82.5 64t28.5 94.5q0 80 -55.5 134.5t-143.5 54.5q-38 0 -83 -16v-354z" />
<glyph unicode="&#xaf;" horiz-adv-x="1567" d="M502 1461v94h1065v-94h-1065z" />
<glyph unicode="&#xb0;" horiz-adv-x="958" d="M371 1053q0 121 84.5 205.5t204.5 84.5q122 0 206.5 -84.5t84.5 -205.5q0 -120 -84.5 -205t-206.5 -85q-120 0 -204.5 85t-84.5 205zM439 1054q0 -92 65 -156.5t156 -64.5q92 0 156.5 65t64.5 156q0 92 -64 156.5t-157 64.5q-92 0 -156.5 -64.5t-64.5 -156.5z" />
<glyph unicode="&#xb1;" horiz-adv-x="1363" d="M263 0v94h1065v-94h-1065zM263 625v94h486v485h94v-485h485v-94h-485v-486h-94v486h-486z" />
<glyph unicode="&#xb2;" horiz-adv-x="767" d="M258 628l11 36q265 233 336 339q57 82 58 136q0 55 -33.5 89t-88.5 34q-75 0 -116 -74l-25 10q28 70 79.5 107.5t111.5 37.5q70 0 116.5 -47t46.5 -113q0 -35 -16 -75q-25 -58 -96 -134q-102 -116 -272 -266h176q46 0 65.5 6t31.5 18t18 30h28l-39 -134h-392z" />
<glyph unicode="&#xb3;" horiz-adv-x="752" d="M256 686q0 18 13 30.5t32 12.5q13 0 26 -4q8 -2 39.5 -20.5t49.5 -24t44 -5.5q46 0 75.5 53.5t29.5 112.5q0 48 -20 87t-63 62t-99 27l9 28q119 9 179 59q43 39 43 93q0 40 -25 66t-64 22q-52 -4 -92 -71l-25 11q22 61 63.5 89.5t95.5 28.5q75 0 112.5 -34t37.5 -92 q0 -47 -35 -90t-115 -81q39 -18 65.5 -58.5t26.5 -98.5q0 -64 -36 -128t-99 -98.5t-141 -34.5q-73 0 -105 22q-22 15 -22 36z" />
<glyph unicode="&#xb4;" horiz-adv-x="679" d="M353 1035l89 308h236l-273 -308h-52z" />
<glyph unicode="&#xb5;" horiz-adv-x="1254" d="M-33 -342q0 26 5.5 47t27.5 75q29 70 174 323.5t305 814.5h118q86 0 62 -83l-159 -558q-22 -77 -22 -116q0 -20 13 -32.5t32 -12.5q28 0 66 27q73 52 148.5 153.5t170.5 255.5q48 81 81 182l52 184h118q86 0 62 -83l-173 -606q-20 -71 -21 -90q0 -16 7 -23.5t20 -7 t30 22.5l42 -31q-35 -48 -87 -74t-111 -26q-54 0 -80 26t-26 76q0 49 27 144l58 203q-182 -275 -282 -362t-172 -87q-84 0 -124 49q-24 29 -33 67q-15 -32 -30 -60q-81 -160 -93 -316q-8 -96 -37.5 -131t-78.5 -35q-41 0 -65.5 25.5t-24.5 58.5z" />
<glyph unicode="&#xb6;" horiz-adv-x="1358" d="M352 975q0 153 108.5 260.5t293.5 107.5h457v-51h-108v-1718h-95v1718h-160v-1718h-94v1032q-185 0 -293.5 108t-108.5 261z" />
<glyph unicode="&#xb7;" horiz-adv-x="401" d="M196 486q11 39 46 59q23 12 47 12q14 0 28 -4q39 -11 59 -46.5t8 -74.5q-11 -39 -46 -58q-23 -13 -47 -14q-14 0 -28 5q-39 11 -59 46t-8 75z" />
<glyph unicode="&#xb8;" horiz-adv-x="626" d="M52 -363l27 36q42 -19 85 -19q49 0 84 26.5t35 68.5q0 33 -21 52q-29 26 -91 26l142 225h65l-79 -126q61 -15 93 -53t32 -93q0 -66 -56 -114q-75 -62 -184 -62q-79 0 -132 33z" />
<glyph unicode="&#xb9;" horiz-adv-x="638" d="M237 628l8 27q12 0 32 13q29 20 46 77l128 449q19 64 19 75q0 14 -8.5 19.5t-21.5 3.5l-5 27l102 18q37 7 46 6q20 0 11 -30l-166 -577q-9 -31 -9 -44t5.5 -20.5t13.5 -12t20 -4.5l-7 -27h-214z" />
<glyph unicode="&#xba;" horiz-adv-x="915" d="M350 979q0 86 50.5 175t132 139t167.5 50q93 0 144.5 -52t51.5 -135q0 -86 -50.5 -175t-132.5 -139.5t-167 -50.5q-93 0 -144.5 52t-51.5 136zM466 938q0 -56 26.5 -86t62.5 -30q77 0 151 124.5t74 250.5q0 56 -26.5 85.5t-62.5 29.5q-77 0 -151 -124t-74 -250z" />
<glyph unicode="&#xbb;" horiz-adv-x="1006" d="M123 0l323 461l-127 457h69l239 -457l-453 -461h-51zM503 0l324 461l-127 457h68l239 -457l-452 -461h-52z" />
<glyph unicode="&#xbc;" horiz-adv-x="1339" d="M237 628l8 27q12 0 31 13q30 20 47 77l128 449q18 64 18 75q0 14 -8 19.5t-21 3.5l-5 27l102 18q37 7 46 6q20 0 11 -30l-166 -577q-9 -31 -9 -44t5 -20.5t13.5 -12t20.5 -4.5l-7 -27h-214zM347 0l738 1388l83 -45l-738 -1387zM790 161l23 81l368 372l101 102h37 l-136 -474h52l-23 -81h-52l-46 -161h-109l46 161h-261zM864 242h211l84 298z" />
<glyph unicode="&#xbd;" horiz-adv-x="1373" d="M237 628l7 27q13 0 32 13q29 20 46 77l129 449q18 64 18 75q0 14 -8 19.5t-22 3.5l-5 27l103 18q37 7 46 6q19 0 11 -30l-166 -577q-9 -31 -9 -44t5 -20.5t13.5 -12t20.5 -4.5l-8 -27h-213zM347 0l738 1388l83 -45l-738 -1387zM848 0l11 37q266 233 336 338q57 82 58 136 q0 55 -34 89.5t-88 34.5q-74 0 -115 -75l-26 11q27 70 79 107.5t112 37.5q70 0 116.5 -47t46.5 -114q0 -35 -16 -74q-25 -58 -96 -134q-102 -116 -271 -267h175q46 0 65.5 6.5t31.5 18t19 29.5h27l-38 -134h-393z" />
<glyph unicode="&#xbe;" horiz-adv-x="1441" d="M256 686q0 18 13 30.5t32 12.5q13 0 26 -4q8 -2 40 -20.5t49.5 -24t43.5 -5.5q46 0 76 53.5t30 112.5q0 48 -20 87t-63.5 62t-98.5 27l8 28q120 9 180 59q43 39 43 93q0 40 -25.5 66t-63.5 22q-52 -4 -93 -71l-25 11q23 61 64 89.5t95 28.5q76 0 113.5 -34t37.5 -92 q0 -47 -35 -90t-115 -81q39 -18 65 -58.5t26 -98.5q0 -64 -36 -128t-99 -98.5t-141 -34.5q-73 0 -105 22q-22 15 -22 36zM449 0l738 1388l84 -45l-739 -1387zM892 161l23 81l369 372l100 102h37l-136 -474h52l-22 -81h-53l-45 -161h-109l45 161h-261zM967 242h210l85 298z " />
<glyph unicode="&#xbf;" horiz-adv-x="1008" d="M152 281q0 88 43 162q57 93 218 203.5t221 187t91 210.5h35h34q-16 -125 -62.5 -216.5t-182 -235.5t-179.5 -233q-30 -62 -31 -128q0 -71 56 -125.5t143 -54.5q84 0 136 36q29 20 30 48q0 20 -16.5 55t-16.5 58q0 34 24 56.5t59 22.5q34 0 58.5 -28.5t24.5 -68.5 q0 -88 -85 -159t-232 -71q-182 0 -275 85.5t-93 195.5zM719 1245q0 41 29 69.5t70 28.5q40 0 68.5 -28.5t28.5 -69.5t-28.5 -70t-68.5 -29q-42 0 -70.5 29t-28.5 70z" />
<glyph unicode="&#xc0;" horiz-adv-x="1283" d="M-42 0l15 52q73 12 131.5 56.5t150.5 174.5l780 1060h92l-100 -1087q-6 -60 -8 -87q-3 -33 2 -57t26.5 -42t69.5 -18l-15 -52h-401l15 52q39 5 60.5 27t33.5 60t20 128l16 175h-389l-137 -186q-47 -62 -58.5 -85.5t-11.5 -47.5q0 -26 25.5 -48t98.5 -23l-15 -52h-401z M508 511h344l49 533zM891 1769h238l89 -308h-52z" />
<glyph unicode="&#xc1;" horiz-adv-x="1406" d="M-42 0l15 52q73 12 131.5 56.5t150.5 174.5l780 1060h92l-100 -1087q-6 -60 -8 -87q-3 -33 2 -57t26.5 -42t69.5 -18l-15 -52h-401l15 52q39 5 60.5 27t33.5 60t20 128l16 175h-389l-137 -186q-47 -62 -58.5 -85.5t-11.5 -47.5q0 -26 25.5 -48t98.5 -23l-15 -52h-401z M508 511h344l49 533zM1080 1461l89 308h236l-273 -308h-52z" />
<glyph unicode="&#xc2;" horiz-adv-x="1332" d="M-42 0l15 52q73 12 131.5 56.5t150.5 174.5l780 1060h92l-100 -1087q-6 -60 -8 -87q-3 -33 2 -57t26.5 -42t69.5 -18l-15 -52h-401l15 52q39 5 60.5 27t33.5 60t20 128l16 175h-389l-137 -186q-47 -62 -58.5 -85.5t-11.5 -47.5q0 -26 25.5 -48t98.5 -23l-15 -52h-401z M508 511h344l49 533zM797 1461l305 308h150l73 -308h-51l-136 195l-290 -195h-51z" />
<glyph unicode="&#xc3;" horiz-adv-x="1414" d="M-42 0l15 52q73 12 131.5 56.5t150.5 174.5l780 1060h92l-100 -1087q-6 -60 -8 -87q-3 -33 2 -57t26.5 -42t69.5 -18l-15 -52h-401l15 52q39 5 60.5 27t33.5 60t20 128l16 175h-389l-137 -186q-47 -62 -58.5 -85.5t-11.5 -47.5q0 -26 25.5 -48t98.5 -23l-15 -52h-401z M508 511h344l49 533zM780 1465q7 135 60 196t126 61t177.5 -69t143.5 -69q35 0 56 26q29 31 39 110h30q2 -125 -53 -192t-130 -67q-72 0 -154 58t-105 69q-24 11 -46 11q-37 0 -61 -29.5t-31 -104.5h-52z" />
<glyph unicode="&#xc4;" horiz-adv-x="1365" d="M-42 0l15 52q73 12 131.5 56.5t150.5 174.5l780 1060h92l-100 -1087q-6 -60 -8 -87q-3 -33 2 -57t26.5 -42t69.5 -18l-15 -52h-401l15 52q39 5 60.5 27t33.5 60t20 128l16 175h-389l-137 -186q-47 -62 -58.5 -85.5t-11.5 -47.5q0 -26 25.5 -48t98.5 -23l-15 -52h-401z M508 511h344l49 533zM828 1558q0 41 28.5 70t68.5 29q41 0 70.5 -29t29.5 -70q0 -40 -29.5 -68.5t-70.5 -28.5q-40 0 -68.5 28.5t-28.5 68.5zM1153 1558q0 41 29 70t70 29q42 0 70 -29t28 -70q0 -40 -28.5 -68.5t-69.5 -28.5q-40 0 -69.5 28.5t-29.5 68.5z" />
<glyph unicode="&#xc5;" horiz-adv-x="1324" d="M-42 0l15 52q73 12 131.5 56.5t150.5 174.5l780 1060h92l-100 -1087q-6 -60 -8 -87q-3 -33 2 -57t26.5 -42t69.5 -18l-15 -52h-401l15 52q39 5 60.5 27t33.5 60t20 128l16 175h-389l-137 -186q-47 -62 -58.5 -85.5t-11.5 -47.5q0 -26 25.5 -48t98.5 -23l-15 -52h-401z M508 511h344l49 533zM927 1648q0 79 55 133.5t133 54.5q79 0 133 -54.5t54 -133.5q0 -78 -54.5 -132.5t-132.5 -54.5q-77 0 -132.5 54.5t-55.5 132.5zM997 1648q0 -48 34.5 -83t84.5 -35q48 0 83 35t35 83q0 50 -34.5 85t-83.5 35q-50 0 -84.5 -35t-34.5 -85z" />
<glyph unicode="&#xc6;" horiz-adv-x="2019" d="M-42 0l15 52q73 12 131.5 56.5t150.5 174.5l635 863q21 31 21 69q0 24 -10 42.5t-25.5 26.5t-37.5 8l15 51h1157l-75 -262l-50 13q6 54 -25 98q-29 39 -77 57q-65 25 -245 26h-46q-48 0 -85 -23q-56 -38 -82 -129l-109 -382h132q136 0 183.5 19t77.5 80h53l-81 -282 l-49 15q0 39 -17 60t-51 30t-136 9h-132l-134 -469q-12 -43 -13 -65q0 -24 9.5 -39t25 -22.5t37.5 -7.5h163q195 0 304 56t170 183l50 -14l-84 -294h-1023l15 52q24 0 60 23q56 38 87 145l64 222h-470l-137 -186q-47 -62 -58.5 -85.5t-11.5 -47.5q0 -26 25.5 -48t98.5 -23 l-15 -52h-401zM508 511h438l219 764q-94 0 -161 -92z" />
<glyph unicode="&#xc7;" horiz-adv-x="1481" d="M233 508q0 211 113 409.5t309.5 312t400.5 113.5q94 0 210 -45q51 -19 76 -18q29 0 43.5 13.5t32.5 49.5h53l-94 -328l-49 14q6 60 -11.5 104t-51.5 74.5t-86 49t-116 18.5q-170 0 -296 -93q-161 -119 -253 -329q-76 -179 -77 -361q0 -187 109 -302.5t267 -115.5 q131 0 242.5 62t199.5 186l42 -30q-81 -120 -210 -206t-303 -86q-191 0 -309.5 66.5t-180 185t-61.5 256.5zM298 -363l27 36q42 -19 85 -19q49 0 84 26.5t35 68.5q0 33 -21 52q-29 26 -91 26l142 225h65l-79 -126q61 -15 93 -53t32 -93q0 -66 -56 -114q-75 -62 -184 -62 q-79 0 -132 33z" />
<glyph unicode="&#xc8;" horiz-adv-x="1293" d="M-42 0l15 52q24 0 60 23q56 38 87 145l263 920q17 60 18 83q0 24 -9.5 38.5t-25 22.5t-38.5 8l15 51h924l-75 -262l-50 13q6 54 -25 98q-29 39 -77 57q-65 25 -245 26h-46q-48 0 -85 -23q-56 -38 -82 -129l-109 -382h132q136 0 183.5 19t77.5 80h53l-81 -282l-49 15 q0 39 -17 60t-51.5 30t-135.5 9h-132l-134 -469q-12 -43 -13 -65q0 -24 9.5 -39t25 -22.5t37.5 -7.5h163q195 0 304 56t170 183l50 -14l-84 -294h-1023zM623 1769h238l89 -308h-52z" />
<glyph unicode="&#xc9;" horiz-adv-x="1293" d="M-42 0l15 52q24 0 60 23q56 38 87 145l263 920q17 60 18 83q0 24 -9.5 38.5t-25 22.5t-38.5 8l15 51h924l-75 -262l-50 13q6 54 -25 98q-29 39 -77 57q-65 25 -245 26h-46q-48 0 -85 -23q-56 -38 -82 -129l-109 -382h132q136 0 183.5 19t77.5 80h53l-81 -282l-49 15 q0 39 -17 60t-51.5 30t-135.5 9h-132l-134 -469q-12 -43 -13 -65q0 -24 9.5 -39t25 -22.5t37.5 -7.5h163q195 0 304 56t170 183l50 -14l-84 -294h-1023zM763 1461l89 308h236l-273 -308h-52z" />
<glyph unicode="&#xca;" horiz-adv-x="1293" d="M-42 0l15 52q24 0 60 23q56 38 87 145l263 920q17 60 18 83q0 24 -9.5 38.5t-25 22.5t-38.5 8l15 51h924l-75 -262l-50 13q6 54 -25 98q-29 39 -77 57q-65 25 -245 26h-46q-48 0 -85 -23q-56 -38 -82 -129l-109 -382h132q136 0 183.5 19t77.5 80h53l-81 -282l-49 15 q0 39 -17 60t-51.5 30t-135.5 9h-132l-134 -469q-12 -43 -13 -65q0 -24 9.5 -39t25 -22.5t37.5 -7.5h163q195 0 304 56t170 183l50 -14l-84 -294h-1023zM624 1461l305 308h150l73 -308h-51l-136 195l-290 -195h-51z" />
<glyph unicode="&#xcb;" horiz-adv-x="1293" d="M-42 0l15 52q24 0 60 23q56 38 87 145l263 920q17 60 18 83q0 24 -9.5 38.5t-25 22.5t-38.5 8l15 51h924l-75 -262l-50 13q6 54 -25 98q-29 39 -77 57q-65 25 -245 26h-46q-48 0 -85 -23q-56 -38 -82 -129l-109 -382h132q136 0 183.5 19t77.5 80h53l-81 -282l-49 15 q0 39 -17 60t-51.5 30t-135.5 9h-132l-134 -469q-12 -43 -13 -65q0 -24 9.5 -39t25 -22.5t37.5 -7.5h163q195 0 304 56t170 183l50 -14l-84 -294h-1023zM655 1558q0 41 28.5 70t68.5 29q41 0 70.5 -29t29.5 -70q0 -40 -29.5 -68.5t-70.5 -28.5q-40 0 -68.5 28.5t-28.5 68.5z M980 1558q0 41 29 70t70 29q42 0 70 -29t28 -70q0 -40 -28.5 -68.5t-69.5 -28.5q-40 0 -69.5 28.5t-29.5 68.5z" />
<glyph unicode="&#xcc;" horiz-adv-x="745" d="M-42 0l15 52q24 0 60 23q56 38 87 145l263 920q17 60 18 83q0 24 -9.5 38.5t-25 22.5t-38.5 8l15 51h401l-15 -51q-24 0 -60 -23q-56 -38 -87 -146l-263 -920q-17 -60 -18 -83q0 -24 9.5 -38.5t25 -22t38.5 -7.5l-15 -52h-401zM353 1769h238l89 -308h-52z" />
<glyph unicode="&#xcd;" horiz-adv-x="802" d="M-42 0l15 52q24 0 60 23q56 38 87 145l263 920q17 60 18 83q0 24 -9.5 38.5t-25 22.5t-38.5 8l15 51h401l-15 -51q-24 0 -60 -23q-56 -38 -87 -146l-263 -920q-17 -60 -18 -83q0 -24 9.5 -38.5t25 -22t38.5 -7.5l-15 -52h-401zM476 1461l89 308h236l-273 -308h-52z" />
<glyph unicode="&#xce;" horiz-adv-x="843" d="M-42 0l15 52q24 0 60 23q56 38 87 145l263 920q17 60 18 83q0 24 -9.5 38.5t-25 22.5t-38.5 8l15 51h401l-15 -51q-24 0 -60 -23q-56 -38 -87 -146l-263 -920q-17 -60 -18 -83q0 -24 9.5 -38.5t25 -22t38.5 -7.5l-15 -52h-401zM314 1461l305 308h150l73 -308h-51 l-136 195l-290 -195h-51z" />
<glyph unicode="&#xcf;" horiz-adv-x="868" d="M-42 0l15 52q24 0 60 23q56 38 87 145l263 920q17 60 18 83q0 24 -9.5 38.5t-25 22.5t-38.5 8l15 51h401l-15 -51q-24 0 -60 -23q-56 -38 -87 -146l-263 -920q-17 -60 -18 -83q0 -24 9.5 -38.5t25 -22t38.5 -7.5l-15 -52h-401zM344 1558q0 41 28.5 70t68.5 29 q41 0 70.5 -29t29.5 -70q0 -40 -29.5 -68.5t-70.5 -28.5q-40 0 -68.5 28.5t-28.5 68.5zM669 1558q0 41 29 70t70 29q42 0 70 -29t28 -70q0 -40 -28.5 -68.5t-69.5 -28.5q-40 0 -69.5 28.5t-29.5 68.5z" />
<glyph unicode="&#xd0;" horiz-adv-x="1626" d="M155 0l15 52q24 0 59 23q56 38 87 145l118 412h-173v79h196l123 429q17 60 17 83q0 24 -9.5 38.5t-25 22.5t-37.5 8l15 51h405q238 0 370 -63t209.5 -196.5t77.5 -286.5q0 -126 -45 -253.5t-115.5 -219t-175 -165t-242.5 -116.5t-344 -43h-525zM503 138q0 -24 9.5 -39 t25 -22.5t37.5 -7.5h105q94 0 227.5 30t218.5 94q121 92 193.5 254.5t72.5 365.5q0 233 -111 347.5t-336 114.5q-48 0 -84 -23q-56 -38 -82 -129l-118 -412h518v-79h-541l-123 -429q-12 -43 -12 -65z" />
<glyph unicode="&#xd1;" horiz-adv-x="1450" d="M-42 0l15 52q24 0 60 23q56 38 87 145l263 920q17 60 18 83q0 24 -9.5 38.5t-25 22.5t-38.5 8l15 51h233l407 -1032l238 829q17 60 17 83q0 24 -9.5 38.5t-25 22.5t-37.5 8l14 51h269l-15 -51q-24 0 -59 -23q-57 -39 -86 -140l-323 -1129h-72l-443 1123l-263 -917 q-18 -63 -18 -86q0 -24 9 -38.5t25 -22t38 -7.5l-15 -52h-269zM649 1465q7 135 60 196t126 61t177.5 -69t143.5 -69q35 0 56 26q29 31 39 110h30q2 -125 -53 -192t-130 -67q-72 0 -154 58t-105 69q-24 11 -46 11q-37 0 -61 -29.5t-31 -104.5h-52z" />
<glyph unicode="&#xd2;" horiz-adv-x="1530" d="M216 449q0 184 87 358t207 292t256.5 181t290.5 63q128 0 226 -55.5t154 -163.5t56 -225q0 -206 -120 -433.5t-313 -346.5t-400 -119q-148 0 -248 66t-148 173.5t-48 209.5zM412 402q0 -134 69.5 -233.5t212.5 -99.5q84 0 167 38.5t173 141.5q113 130 189.5 331.5 t76.5 375.5q0 129 -69 224t-207 95q-94 0 -184.5 -43.5t-180 -149.5t-159.5 -278q-88 -212 -88 -402zM856 1769h238l89 -308h-52z" />
<glyph unicode="&#xd3;" horiz-adv-x="1530" d="M216 449q0 184 87 358t207 292t256.5 181t290.5 63q128 0 226 -55.5t154 -163.5t56 -225q0 -206 -120 -433.5t-313 -346.5t-400 -119q-148 0 -248 66t-148 173.5t-48 209.5zM412 402q0 -134 69.5 -233.5t212.5 -99.5q84 0 167 38.5t173 141.5q113 130 189.5 331.5 t76.5 375.5q0 129 -69 224t-207 95q-94 0 -184.5 -43.5t-180 -149.5t-159.5 -278q-88 -212 -88 -402zM978 1461l89 308h236l-273 -308h-52z" />
<glyph unicode="&#xd4;" horiz-adv-x="1530" d="M216 449q0 184 87 358t207 292t256.5 181t290.5 63q128 0 226 -55.5t154 -163.5t56 -225q0 -206 -120 -433.5t-313 -346.5t-400 -119q-148 0 -248 66t-148 173.5t-48 209.5zM412 402q0 -134 69.5 -233.5t212.5 -99.5q84 0 167 38.5t173 141.5q113 130 189.5 331.5 t76.5 375.5q0 129 -69 224t-207 95q-94 0 -184.5 -43.5t-180 -149.5t-159.5 -278q-88 -212 -88 -402zM816 1461l305 308h150l73 -308h-51l-136 195l-290 -195h-51z" />
<glyph unicode="&#xd5;" horiz-adv-x="1530" d="M216 449q0 184 87 358t207 292t256.5 181t290.5 63q128 0 226 -55.5t154 -163.5t56 -225q0 -206 -120 -433.5t-313 -346.5t-400 -119q-148 0 -248 66t-148 173.5t-48 209.5zM412 402q0 -134 69.5 -233.5t212.5 -99.5q84 0 167 38.5t173 141.5q113 130 189.5 331.5 t76.5 375.5q0 129 -69 224t-207 95q-94 0 -184.5 -43.5t-180 -149.5t-159.5 -278q-88 -212 -88 -402zM799 1465q7 135 60 196t126 61t177.5 -69t143.5 -69q35 0 56 26q29 31 39 110h30q2 -125 -53 -192t-130 -67q-72 0 -154 58t-105 69q-24 11 -46 11q-37 0 -61 -29.5 t-31 -104.5h-52z" />
<glyph unicode="&#xd6;" horiz-adv-x="1530" d="M216 449q0 184 87 358t207 292t256.5 181t290.5 63q128 0 226 -55.5t154 -163.5t56 -225q0 -206 -120 -433.5t-313 -346.5t-400 -119q-148 0 -248 66t-148 173.5t-48 209.5zM412 402q0 -134 69.5 -233.5t212.5 -99.5q84 0 167 38.5t173 141.5q113 130 189.5 331.5 t76.5 375.5q0 129 -69 224t-207 95q-94 0 -184.5 -43.5t-180 -149.5t-159.5 -278q-88 -212 -88 -402zM847 1558q0 41 28.5 70t68.5 29q41 0 70.5 -29t29.5 -70q0 -40 -29.5 -68.5t-70.5 -28.5q-40 0 -68.5 28.5t-28.5 68.5zM1172 1558q0 41 29 70t70 29q42 0 70 -29t28 -70 q0 -40 -28.5 -68.5t-69.5 -28.5q-40 0 -69.5 28.5t-29.5 68.5z" />
<glyph unicode="&#xd7;" horiz-adv-x="1206" d="M348 328l343 344l-343 343l67 67l344 -344l342 343l67 -66l-343 -343l343 -344l-67 -66l-342 343l-344 -344z" />
<glyph unicode="&#xd8;" horiz-adv-x="1653" d="M57 0l225 205q-10 16 -17 35q-48 107 -49 209q0 184 87 358t207 292t256.5 181t290.5 63q128 0 226 -55q57 -33 100 -83l216 197l53 -59l-224 -203l10 -16q56 -108 55 -225q0 -206 -120 -433.5t-313 -346.5t-400 -119q-148 0 -248 66q-48 32 -84 73l-219 -198zM412 402 q0 -39 6 -74l854 777q-16 39 -41 75q-70 95 -207 95q-94 0 -184.5 -43.5t-180 -149.5t-159.5 -278q-88 -212 -88 -402zM441 243q16 -40 41 -74q69 -100 212 -100q84 0 167 38.5t173 141.5q113 130 189.5 331.5t76.5 375.5q0 33 -5 64z" />
<glyph unicode="&#xd9;" horiz-adv-x="1571" d="M192 374q0 61 13 127q8 44 41 159l137 480q17 60 18 83q0 24 -9.5 38.5t-25 22.5t-38.5 8l15 51h401l-15 -51q-24 0 -60 -23q-56 -38 -87 -146l-132 -463q-37 -128 -45 -170q-11 -61 -12 -116q0 -135 89 -210t239 -75q84 0 161.5 37.5t140 115t102.5 181t73 220.5 l143 497q17 60 17 83q0 24 -9.5 38.5t-25 22.5t-37.5 8l15 51h269l-15 -51q-24 0 -60 -23q-56 -38 -87 -146l-142 -494q-70 -242 -132 -357.5t-176 -193.5t-262 -78q-256 0 -380 106.5t-124 267.5zM765 1769h238l89 -308h-52z" />
<glyph unicode="&#xda;" horiz-adv-x="1571" d="M192 374q0 61 13 127q8 44 41 159l137 480q17 60 18 83q0 24 -9.5 38.5t-25 22.5t-38.5 8l15 51h401l-15 -51q-24 0 -60 -23q-56 -38 -87 -146l-132 -463q-37 -128 -45 -170q-11 -61 -12 -116q0 -135 89 -210t239 -75q84 0 161.5 37.5t140 115t102.5 181t73 220.5 l143 497q17 60 17 83q0 24 -9.5 38.5t-25 22.5t-37.5 8l15 51h269l-15 -51q-24 0 -60 -23q-56 -38 -87 -146l-142 -494q-70 -242 -132 -357.5t-176 -193.5t-262 -78q-256 0 -380 106.5t-124 267.5zM888 1461l89 308h236l-273 -308h-52z" />
<glyph unicode="&#xdb;" horiz-adv-x="1571" d="M192 374q0 61 13 127q8 44 41 159l137 480q17 60 18 83q0 24 -9.5 38.5t-25 22.5t-38.5 8l15 51h401l-15 -51q-24 0 -60 -23q-56 -38 -87 -146l-132 -463q-37 -128 -45 -170q-11 -61 -12 -116q0 -135 89 -210t239 -75q84 0 161.5 37.5t140 115t102.5 181t73 220.5 l143 497q17 60 17 83q0 24 -9.5 38.5t-25 22.5t-37.5 8l15 51h269l-15 -51q-24 0 -60 -23q-56 -38 -87 -146l-142 -494q-70 -242 -132 -357.5t-176 -193.5t-262 -78q-256 0 -380 106.5t-124 267.5zM726 1461l305 308h150l73 -308h-51l-136 195l-290 -195h-51z" />
<glyph unicode="&#xdc;" horiz-adv-x="1571" d="M192 374q0 61 13 127q8 44 41 159l137 480q17 60 18 83q0 24 -9.5 38.5t-25 22.5t-38.5 8l15 51h401l-15 -51q-24 0 -60 -23q-56 -38 -87 -146l-132 -463q-37 -128 -45 -170q-11 -61 -12 -116q0 -135 89 -210t239 -75q84 0 161.5 37.5t140 115t102.5 181t73 220.5 l143 497q17 60 17 83q0 24 -9.5 38.5t-25 22.5t-37.5 8l15 51h269l-15 -51q-24 0 -60 -23q-56 -38 -87 -146l-142 -494q-70 -242 -132 -357.5t-176 -193.5t-262 -78q-256 0 -380 106.5t-124 267.5zM757 1558q0 41 28.5 70t68.5 29q41 0 70.5 -29t29.5 -70q0 -40 -29.5 -68.5 t-70.5 -28.5q-40 0 -68.5 28.5t-28.5 68.5zM1082 1558q0 41 29 70t70 29q42 0 70 -29t28 -70q0 -40 -28.5 -68.5t-69.5 -28.5q-40 0 -69.5 28.5t-29.5 68.5z" />
<glyph unicode="&#xdd;" horiz-adv-x="1531" d="M328 1292l15 51h401l-15 -51q-33 -5 -51 -39q-22 -42 -5 -106l139 -495l330 457q53 74 43 123q-7 29 -26.5 44.5t-43.5 15.5l15 51h400l-14 -51q-57 0 -122 -35q-97 -53 -205 -201l-353 -489l-32 -44l-92 -320q-17 -60 -17 -83q0 -24 9.5 -38.5t25 -22t37.5 -7.5l-15 -52 h-401l15 52q24 0 60 23q56 38 87 145l109 380l-153 545q-13 45 -27 72q-15 28 -31 43.5t-38 23.5t-45 8zM868 1461l89 308h236l-273 -308h-52z" />
<glyph unicode="&#xde;" horiz-adv-x="1212" d="M-42 0l15 52q24 0 60 23q56 38 87 145l263 920q17 60 18 83q0 24 -9.5 38.5t-25 22.5t-38.5 8l15 51h401l-15 -51q-24 0 -60 -23q-56 -38 -87 -146l-22 -81h139q158 0 262 -31t165.5 -106.5t61.5 -175.5q0 -164 -98.5 -263t-217 -132t-345.5 -33h-180l-28 -98 q-17 -60 -18 -83q0 -24 9.5 -38.5t25 -22t38.5 -7.5l-15 -52h-401zM366 370h181q225 0 331.5 100t106.5 259q0 111 -67 177.5t-239 66.5h-139z" />
<glyph unicode="&#xdf;" horiz-adv-x="1528" d="M36 -316q0 41 25 64.5t59 23.5q30 0 48.5 -18.5t18.5 -43.5t-21 -43q-16 -14 -15 -23q0 -7 6 -12q9 -7 30 -6q44 0 90.5 29t78.5 75.5t69 142.5q17 44 83 273l197 689q67 234 119.5 319t139 137t242.5 52q125 0 206 -71t81 -195q0 -100 -52 -174.5t-142 -121.5 q-60 -29 -145 -49q88 -30 140.5 -71.5t86 -105.5t33.5 -140q0 -113 -51 -210t-147 -151t-212 -54q-93 0 -138.5 43.5t-45.5 122.5q0 64 23.5 90.5t57.5 26.5q29 0 48 -19t19 -48q0 -31 -23 -78q-16 -34 -16 -48q0 -20 14.5 -29t42.5 -9q53 0 112.5 58.5t96.5 186.5 q24 83 24 158q0 89 -49 153q-61 75 -176 92l19 68q161 0 251.5 111t90.5 250q0 70 -43.5 116.5t-104.5 46.5q-59 0 -106 -33t-91 -119q-30 -59 -77 -222l-152 -532q-80 -280 -142 -420q-87 -198 -228 -309q-105 -83 -239 -83q-57 0 -96 30q-40 32 -40 80z" />
<glyph unicode="&#xe0;" d="M125 251q0 152 92.5 315.5t242.5 269.5q117 82 245 82q94 0 146.5 -39t66.5 -93l29 103l95 17q66 11 83 12q34 0 18 -57l-181 -632q-20 -71 -21 -90q0 -16 7 -23.5t20 -7t30 22.5l42 -31q-35 -48 -87 -74t-111 -26q-54 0 -80 26t-26 76q0 49 27 144l8 28 q-99 -134 -199 -204t-206 -70q-114 0 -177.5 70.5t-63.5 180.5zM335 268q0 -76 32.5 -114t84.5 -38q66 0 130 42.5t122.5 115.5t116 203.5t57.5 230.5q0 70 -41 114t-105 44q-129 0 -263 -205.5t-134 -392.5zM560 1343h238l89 -308h-52z" />
<glyph unicode="&#xe1;" d="M125 251q0 152 92.5 315.5t242.5 269.5q117 82 245 82q94 0 146.5 -39t66.5 -93l29 103l95 17q66 11 83 12q34 0 18 -57l-181 -632q-20 -71 -21 -90q0 -16 7 -23.5t20 -7t30 22.5l42 -31q-35 -48 -87 -74t-111 -26q-54 0 -80 26t-26 76q0 49 27 144l8 28 q-99 -134 -199 -204t-206 -70q-114 0 -177.5 70.5t-63.5 180.5zM335 268q0 -76 32.5 -114t84.5 -38q66 0 130 42.5t122.5 115.5t116 203.5t57.5 230.5q0 70 -41 114t-105 44q-129 0 -263 -205.5t-134 -392.5zM683 1035l89 308h236l-273 -308h-52z" />
<glyph unicode="&#xe2;" d="M125 251q0 152 92.5 315.5t242.5 269.5q117 82 245 82q94 0 146.5 -39t66.5 -93l29 103l95 17q66 11 83 12q34 0 18 -57l-181 -632q-20 -71 -21 -90q0 -16 7 -23.5t20 -7t30 22.5l42 -31q-35 -48 -87 -74t-111 -26q-54 0 -80 26t-26 76q0 49 27 144l8 28 q-99 -134 -199 -204t-206 -70q-114 0 -177.5 70.5t-63.5 180.5zM335 268q0 -76 32.5 -114t84.5 -38q66 0 130 42.5t122.5 115.5t116 203.5t57.5 230.5q0 70 -41 114t-105 44q-129 0 -263 -205.5t-134 -392.5zM521 1035l305 308h150l73 -308h-51l-136 195l-290 -195h-51z" />
<glyph unicode="&#xe3;" d="M125 251q0 152 92.5 315.5t242.5 269.5q117 82 245 82q94 0 146.5 -39t66.5 -93l29 103l95 17q66 11 83 12q34 0 18 -57l-181 -632q-20 -71 -21 -90q0 -16 7 -23.5t20 -7t30 22.5l42 -31q-35 -48 -87 -74t-111 -26q-54 0 -80 26t-26 76q0 49 27 144l8 28 q-99 -134 -199 -204t-206 -70q-114 0 -177.5 70.5t-63.5 180.5zM335 268q0 -76 32.5 -114t84.5 -38q66 0 130 42.5t122.5 115.5t116 203.5t57.5 230.5q0 70 -41 114t-105 44q-129 0 -263 -205.5t-134 -392.5zM504 1039q7 135 60 196t126 61t177.5 -69t143.5 -69q35 0 56 26 q29 31 39 110h30q2 -125 -53 -192t-130 -67q-72 0 -154 58t-105 69q-24 11 -46 11q-37 0 -61 -29.5t-31 -104.5h-52z" />
<glyph unicode="&#xe4;" d="M125 251q0 152 92.5 315.5t242.5 269.5q117 82 245 82q94 0 146.5 -39t66.5 -93l29 103l95 17q66 11 83 12q34 0 18 -57l-181 -632q-20 -71 -21 -90q0 -16 7 -23.5t20 -7t30 22.5l42 -31q-35 -48 -87 -74t-111 -26q-54 0 -80 26t-26 76q0 49 27 144l8 28 q-99 -134 -199 -204t-206 -70q-114 0 -177.5 70.5t-63.5 180.5zM335 268q0 -76 32.5 -114t84.5 -38q66 0 130 42.5t122.5 115.5t116 203.5t57.5 230.5q0 70 -41 114t-105 44q-129 0 -263 -205.5t-134 -392.5zM552 1132q0 41 28.5 70t68.5 29q41 0 70.5 -29t29.5 -70 q0 -40 -29.5 -68.5t-70.5 -28.5q-40 0 -68.5 28.5t-28.5 68.5zM877 1132q0 41 29 70t70 29q42 0 70 -29t28 -70q0 -40 -28.5 -68.5t-69.5 -28.5q-40 0 -69.5 28.5t-29.5 68.5z" />
<glyph unicode="&#xe5;" d="M125 251q0 152 92.5 315.5t242.5 269.5q117 82 245 82q94 0 146.5 -39t66.5 -93l29 103l95 17q66 11 83 12q34 0 18 -57l-181 -632q-20 -71 -21 -90q0 -16 7 -23.5t20 -7t30 22.5l42 -31q-35 -48 -87 -74t-111 -26q-54 0 -80 26t-26 76q0 49 27 144l8 28 q-99 -134 -199 -204t-206 -70q-114 0 -177.5 70.5t-63.5 180.5zM335 268q0 -76 32.5 -114t84.5 -38q66 0 130 42.5t122.5 115.5t116 203.5t57.5 230.5q0 70 -41 114t-105 44q-129 0 -263 -205.5t-134 -392.5zM651 1222q0 79 55 133.5t133 54.5q79 0 133 -54.5t54 -133.5 q0 -78 -54.5 -132.5t-132.5 -54.5q-77 0 -132.5 54.5t-55.5 132.5zM721 1222q0 -48 34.5 -83t84.5 -35q48 0 83 35t35 83q0 50 -34.5 85t-83.5 35q-50 0 -84.5 -35t-34.5 -85z" />
<glyph unicode="&#xe6;" horiz-adv-x="1713" d="M125 251q0 152 92.5 315.5t242.5 269.5q117 82 245 82q94 0 146.5 -39t66.5 -93l29 103l95 17q66 11 83 12q34 0 18 -57l-6 -19q137 75 334 76q128 0 184 -47t56 -104q0 -78 -64 -151q-86 -98 -254 -158q-111 -41 -378 -67l-1 -4q-6 -40 -6 -82q0 -102 55 -160.5 t149 -58.5q164 0 318 184l40 -34q-197 -236 -458 -236q-157 0 -236 77.5t-79 211.5q0 11 1 22l-27 -37q-99 -134 -199 -204t-206 -70q-114 0 -177.5 70.5t-63.5 180.5zM335 268q0 -76 32.5 -114t84.5 -38q66 0 130 42.5t122.5 115.5t116 203.5t57.5 230.5q0 70 -41 114 t-105 44q-129 0 -263 -205.5t-134 -392.5zM1025 442q145 17 237 59q122 54 185.5 129.5t63.5 144.5q0 42 -26.5 66t-71.5 24q-66 0 -161 -64.5t-162 -190.5q-45 -84 -65 -168z" />
<glyph unicode="&#xe7;" horiz-adv-x="979" d="M120 289q0 152 85 298.5t228.5 238.5t325.5 92q108 0 161.5 -49t53.5 -115q0 -60 -36 -103q-29 -36 -70 -36q-30 0 -51 20t-21 48q0 20 8 37t31 38.5t28 31.5t5 21q0 20 -19 34q-29 20 -81 20q-97 0 -192.5 -64.5t-162.5 -190.5q-81 -151 -81 -305q0 -102 55 -160.5 t148 -58.5q164 0 319 184l40 -34q-197 -236 -458 -236q-157 0 -236.5 77.5t-79.5 211.5zM158 -363l27 36q42 -19 85 -19q49 0 84 26.5t35 68.5q0 33 -21 52q-29 26 -91 26l142 225h65l-79 -126q61 -15 93 -53t32 -93q0 -66 -56 -114q-75 -62 -184 -62q-79 0 -132 33z" />
<glyph unicode="&#xe8;" horiz-adv-x="1053" d="M137 289q0 152 84.5 298.5t228 238.5t361.5 92q128 0 184 -47t56 -104q0 -78 -65 -151q-86 -98 -254 -158q-111 -41 -377 -67l-1 -4q-6 -40 -6 -82q0 -102 55 -160.5t148 -58.5q164 0 319 184l40 -34q-197 -236 -458 -236q-157 0 -236 77.5t-79 211.5zM365 442 q145 17 236 59q122 54 185.5 129.5t63.5 144.5q0 42 -26 66t-71 24q-66 0 -161.5 -64.5t-162.5 -190.5q-45 -84 -64 -168zM531 1343h238l89 -308h-52z" />
<glyph unicode="&#xe9;" horiz-adv-x="1053" d="M137 289q0 152 84.5 298.5t228 238.5t361.5 92q128 0 184 -47t56 -104q0 -78 -65 -151q-86 -98 -254 -158q-111 -41 -377 -67l-1 -4q-6 -40 -6 -82q0 -102 55 -160.5t148 -58.5q164 0 319 184l40 -34q-197 -236 -458 -236q-157 0 -236 77.5t-79 211.5zM365 442 q145 17 236 59q122 54 185.5 129.5t63.5 144.5q0 42 -26 66t-71 24q-66 0 -161.5 -64.5t-162.5 -190.5q-45 -84 -64 -168zM654 1035l89 308h236l-273 -308h-52z" />
<glyph unicode="&#xea;" horiz-adv-x="1053" d="M137 289q0 152 84.5 298.5t228 238.5t361.5 92q128 0 184 -47t56 -104q0 -78 -65 -151q-86 -98 -254 -158q-111 -41 -377 -67l-1 -4q-6 -40 -6 -82q0 -102 55 -160.5t148 -58.5q164 0 319 184l40 -34q-197 -236 -458 -236q-157 0 -236 77.5t-79 211.5zM365 442 q145 17 236 59q122 54 185.5 129.5t63.5 144.5q0 42 -26 66t-71 24q-66 0 -161.5 -64.5t-162.5 -190.5q-45 -84 -64 -168zM492 1035l305 308h150l73 -308h-51l-136 195l-290 -195h-51z" />
<glyph unicode="&#xeb;" horiz-adv-x="1053" d="M137 289q0 152 84.5 298.5t228 238.5t361.5 92q128 0 184 -47t56 -104q0 -78 -65 -151q-86 -98 -254 -158q-111 -41 -377 -67l-1 -4q-6 -40 -6 -82q0 -102 55 -160.5t148 -58.5q164 0 319 184l40 -34q-197 -236 -458 -236q-157 0 -236 77.5t-79 211.5zM365 442 q145 17 236 59q122 54 185.5 129.5t63.5 144.5q0 42 -26 66t-71 24q-66 0 -161.5 -64.5t-162.5 -190.5q-45 -84 -64 -168zM523 1132q0 41 28.5 70t68.5 29q41 0 70.5 -29t29.5 -70q0 -40 -29.5 -68.5t-70.5 -28.5q-40 0 -68.5 28.5t-28.5 68.5zM848 1132q0 41 29 70t70 29 q42 0 70 -29t28 -70q0 -40 -28.5 -68.5t-69.5 -28.5q-40 0 -69.5 28.5t-29.5 68.5z" />
<glyph unicode="&#xec;" horiz-adv-x="655" d="M100 102q0 49 27 144l113 395q34 117 34 137q0 26 -16 36t-41 7l-9 51l191 33q70 12 88 13q37 0 20 -57l-181 -632q-20 -71 -20 -90q0 -16 6.5 -23.5t20 -7t29.5 22.5l42 -31q-35 -48 -87 -74t-111 -26q-54 0 -80 26t-26 76zM328 1343h238l89 -308h-52z" />
<glyph unicode="&#xed;" horiz-adv-x="679" d="M100 102q0 49 27 144l113 395q34 117 34 137q0 26 -16 36t-41 7l-9 51l191 33q70 12 88 13q37 0 20 -57l-181 -632q-20 -71 -20 -90q0 -16 6.5 -23.5t20 -7t29.5 22.5l42 -31q-35 -48 -87 -74t-111 -26q-54 0 -80 26t-26 76zM353 1035l89 308h236l-273 -308h-52z" />
<glyph unicode="&#xee;" horiz-adv-x="720" d="M100 102q0 49 27 144l113 395q34 117 34 137q0 26 -16 36t-41 7l-9 51l191 33q70 12 88 13q37 0 20 -57l-181 -632q-20 -71 -20 -90q0 -16 6.5 -23.5t20 -7t29.5 22.5l42 -31q-35 -48 -87 -74t-111 -26q-54 0 -80 26t-26 76zM191 1035l305 308h150l73 -308h-51l-136 195 l-290 -195h-51z" />
<glyph unicode="&#xef;" horiz-adv-x="744" d="M100 102q0 49 27 144l113 395q34 117 34 137q0 26 -16 36t-41 7l-9 51l191 33q70 12 88 13q37 0 20 -57l-181 -632q-20 -71 -20 -90q0 -16 6.5 -23.5t20 -7t29.5 22.5l42 -31q-35 -48 -87 -74t-111 -26q-54 0 -80 26t-26 76zM222 1132q0 41 28.5 70t68.5 29 q41 0 70.5 -29t29.5 -70q0 -40 -29.5 -68.5t-70.5 -28.5q-40 0 -68.5 28.5t-28.5 68.5zM547 1132q0 41 29 70t70 29q42 0 70 -29t28 -70q0 -40 -28.5 -68.5t-69.5 -28.5q-40 0 -69.5 28.5t-29.5 68.5z" />
<glyph unicode="&#xf0;" horiz-adv-x="1141" d="M170 321q0 135 72.5 273t202.5 231t308 93q48 0 84 -11.5t71 -38.5q0 52 -17 131q-15 73 -51 145l-227 -123l-27 48l228 124q-34 56 -78 111l31 39q65 -56 110 -116l215 116l27 -49l-210 -114q4 -6 8 -11q55 -93 91 -221t36 -269q0 -192 -71 -348t-186.5 -243.5 t-284.5 -87.5q-157 0 -244.5 90t-87.5 231zM360 295q0 -94 40.5 -160t126.5 -66q75 0 151 58q98 75 161.5 248.5t63.5 304.5q0 96 -42 141t-112 45q-71 0 -144 -57q-97 -79 -171 -246t-74 -268z" />
<glyph unicode="&#xf1;" horiz-adv-x="1110" d="M80 83l160 558q34 117 34 137q0 26 -16 36t-41 7l-9 51l191 33q70 12 88 13q37 0 20 -57l-112 -392q182 275 282 362t204 87q92 0 124 -33t32 -85q0 -51 -31 -159l-118 -412q-20 -71 -20 -90q0 -16 6.5 -23.5t20 -7t29.5 22.5l42 -31q-35 -48 -87 -74t-111 -26 q-54 0 -80 26t-26 76t27 144l113 395q22 77 22 116q0 20 -13 32t-32 12q-28 0 -66 -27q-73 -52 -148.5 -153.5t-170.5 -255.5q-48 -81 -81 -181l-52 -184h-118q-86 0 -63 83zM455 1039q7 135 60 196t126 61t177.5 -69t143.5 -69q35 0 56 26q29 31 39 110h30q2 -125 -53 -192 t-130 -67q-72 0 -154 58t-105 69q-24 11 -46 11q-37 0 -61 -29.5t-31 -104.5h-52z" />
<glyph unicode="&#xf2;" horiz-adv-x="1082" d="M138 311q0 143 84 291t220 232t278 84q155 0 240.5 -87t85.5 -225q0 -143 -83.5 -291t-220 -231.5t-278.5 -83.5q-155 0 -240.5 87t-85.5 224zM332 244q0 -93 43.5 -142.5t103.5 -49.5q127 0 250.5 206t123.5 415q0 93 -44 143t-103 50q-128 0 -251 -206t-123 -416z M558 1343h238l89 -308h-52z" />
<glyph unicode="&#xf3;" horiz-adv-x="1082" d="M138 311q0 143 84 291t220 232t278 84q155 0 240.5 -87t85.5 -225q0 -143 -83.5 -291t-220 -231.5t-278.5 -83.5q-155 0 -240.5 87t-85.5 224zM332 244q0 -93 43.5 -142.5t103.5 -49.5q127 0 250.5 206t123.5 415q0 93 -44 143t-103 50q-128 0 -251 -206t-123 -416z M681 1035l89 308h236l-273 -308h-52z" />
<glyph unicode="&#xf4;" horiz-adv-x="1082" d="M138 311q0 143 84 291t220 232t278 84q155 0 240.5 -87t85.5 -225q0 -143 -83.5 -291t-220 -231.5t-278.5 -83.5q-155 0 -240.5 87t-85.5 224zM332 244q0 -93 43.5 -142.5t103.5 -49.5q127 0 250.5 206t123.5 415q0 93 -44 143t-103 50q-128 0 -251 -206t-123 -416z M519 1035l305 308h150l73 -308h-51l-136 195l-290 -195h-51z" />
<glyph unicode="&#xf5;" horiz-adv-x="1123" d="M138 311q0 143 84 291t220 232t278 84q155 0 240.5 -87t85.5 -225q0 -143 -83.5 -291t-220 -231.5t-278.5 -83.5q-155 0 -240.5 87t-85.5 224zM332 244q0 -93 43.5 -142.5t103.5 -49.5q127 0 250.5 206t123.5 415q0 93 -44 143t-103 50q-128 0 -251 -206t-123 -416z M502 1039q7 135 60 196t126 61t177.5 -69t143.5 -69q35 0 56 26q29 31 39 110h30q2 -125 -53 -192t-130 -67q-72 0 -154 58t-105 69q-24 11 -46 11q-37 0 -61 -29.5t-31 -104.5h-52z" />
<glyph unicode="&#xf6;" horiz-adv-x="1082" d="M138 311q0 143 84 291t220 232t278 84q155 0 240.5 -87t85.5 -225q0 -143 -83.5 -291t-220 -231.5t-278.5 -83.5q-155 0 -240.5 87t-85.5 224zM332 244q0 -93 43.5 -142.5t103.5 -49.5q127 0 250.5 206t123.5 415q0 93 -44 143t-103 50q-128 0 -251 -206t-123 -416z M550 1132q0 41 28.5 70t68.5 29q41 0 70.5 -29t29.5 -70q0 -40 -29.5 -68.5t-70.5 -28.5q-40 0 -68.5 28.5t-28.5 68.5zM875 1132q0 41 29 70t70 29q42 0 70 -29t28 -70q0 -40 -28.5 -68.5t-69.5 -28.5q-40 0 -69.5 28.5t-29.5 68.5z" />
<glyph unicode="&#xf7;" horiz-adv-x="950" d="M200 419v79h737v-79h-737zM358 111q0 46 32 78t78 32q48 0 79.5 -32.5t31.5 -77.5q0 -46 -32.5 -78.5t-78.5 -32.5t-78 32.5t-32 78.5zM558 807q0 46 32 78.5t78 32.5q48 0 79.5 -32.5t31.5 -78.5t-32.5 -78.5t-78.5 -32.5t-78 32.5t-32 78.5z" />
<glyph unicode="&#xf8;" d="M57 0l154 140q-44 72 -45 171q0 143 83.5 291t220 232t278.5 84q147 0 233 -79l150 137l53 -58l-154 -141q44 -72 44 -171q0 -143 -83.5 -291t-220 -231.5t-278.5 -83.5q-147 0 -231 79l-152 -138zM360 276l513 465q-11 45 -36 75q-44 50 -103 50q-128 0 -251 -206 q-115 -191 -123 -384zM367 175q11 -44 37 -73q43 -50 103 -50q127 0 251 206q114 190 122 383z" />
<glyph unicode="&#xf9;" horiz-adv-x="1110" d="M105 118q0 51 31 159l104 364q34 117 34 137q0 26 -16 36t-41 7l-9 51l191 33q70 12 88 13q37 0 20 -57l-167 -584q-22 -77 -22 -116q0 -20 13 -32.5t32 -12.5q28 0 66 27q73 52 148.5 153.5t170.5 255.5q48 81 81 182l52 184h118q86 0 63 -83l-174 -606q-20 -71 -20 -90 q0 -16 6.5 -23.5t20 -7t29.5 22.5l42 -31q-35 -48 -87 -74t-111 -26q-54 0 -80 26t-26 76q0 49 27 144l58 203q-182 -275 -282 -362t-204 -87q-92 0 -124 33t-32 85zM511 1343h238l89 -308h-52z" />
<glyph unicode="&#xfa;" horiz-adv-x="1110" d="M105 118q0 51 31 159l104 364q34 117 34 137q0 26 -16 36t-41 7l-9 51l191 33q70 12 88 13q37 0 20 -57l-167 -584q-22 -77 -22 -116q0 -20 13 -32.5t32 -12.5q28 0 66 27q73 52 148.5 153.5t170.5 255.5q48 81 81 182l52 184h118q86 0 63 -83l-174 -606q-20 -71 -20 -90 q0 -16 6.5 -23.5t20 -7t29.5 22.5l42 -31q-35 -48 -87 -74t-111 -26q-54 0 -80 26t-26 76q0 49 27 144l58 203q-182 -275 -282 -362t-204 -87q-92 0 -124 33t-32 85zM634 1035l89 308h236l-273 -308h-52z" />
<glyph unicode="&#xfb;" horiz-adv-x="1110" d="M105 118q0 51 31 159l104 364q34 117 34 137q0 26 -16 36t-41 7l-9 51l191 33q70 12 88 13q37 0 20 -57l-167 -584q-22 -77 -22 -116q0 -20 13 -32.5t32 -12.5q28 0 66 27q73 52 148.5 153.5t170.5 255.5q48 81 81 182l52 184h118q86 0 63 -83l-174 -606q-20 -71 -20 -90 q0 -16 6.5 -23.5t20 -7t29.5 22.5l42 -31q-35 -48 -87 -74t-111 -26q-54 0 -80 26t-26 76q0 49 27 144l58 203q-182 -275 -282 -362t-204 -87q-92 0 -124 33t-32 85zM472 1035l305 308h150l73 -308h-51l-136 195l-290 -195h-51z" />
<glyph unicode="&#xfc;" horiz-adv-x="1110" d="M105 118q0 51 31 159l104 364q34 117 34 137q0 26 -16 36t-41 7l-9 51l191 33q70 12 88 13q37 0 20 -57l-167 -584q-22 -77 -22 -116q0 -20 13 -32.5t32 -12.5q28 0 66 27q73 52 148.5 153.5t170.5 255.5q48 81 81 182l52 184h118q86 0 63 -83l-174 -606q-20 -71 -20 -90 q0 -16 6.5 -23.5t20 -7t29.5 22.5l42 -31q-35 -48 -87 -74t-111 -26q-54 0 -80 26t-26 76q0 49 27 144l58 203q-182 -275 -282 -362t-204 -87q-92 0 -124 33t-32 85zM503 1132q0 41 28.5 70t68.5 29q41 0 70.5 -29t29.5 -70q0 -40 -29.5 -68.5t-70.5 -28.5q-40 0 -68.5 28.5 t-28.5 68.5zM828 1132q0 41 29 70t70 29q42 0 70 -29t28 -70q0 -40 -28.5 -68.5t-69.5 -28.5q-40 0 -69.5 28.5t-29.5 68.5z" />
<glyph unicode="&#xfd;" horiz-adv-x="1241" d="M29 -336q0 44 29.5 70.5t66.5 26.5q47 0 73 -36t43 -36q11 0 27 10q56 37 150 130l188 187q5 5 4 11l-36 382q-14 147 -32.5 242.5t-60.5 136t-99 33.5l-9 51l154 27q107 19 161 -62q51 -80 79 -375l24 -251v-9q250 265 302 428q12 39 12 70t-46 63t-46 75q0 35 25 57.5 t61 22.5q41 0 72.5 -34t31.5 -85q0 -50 -18 -108q-83 -257 -456 -627q-374 -370 -454.5 -430t-140.5 -60q-46 0 -75.5 24t-29.5 66zM634 1035l89 308h236l-273 -308h-52z" />
<glyph unicode="&#xfe;" horiz-adv-x="1258" d="M0 -426l15 52q24 0 60 23q56 38 86 145l364 1269q34 120 35 141q0 26 -16 36t-41 7l-9 51l191 33q70 12 88 12q37 0 20 -57l-171 -596q108 127 188.5 177.5t177.5 50.5q134 0 201 -70q18 -19 29 -40q34 -60 35 -142q0 -221 -177.5 -443.5t-465.5 -222.5q-50 0 -93.5 10 t-79.5 33l-77 -266q-17 -60 -17 -83q0 -24 9.5 -38.5t25 -22t37.5 -7.5l-14 -52h-401zM460 123q61 -71 165 -71q67 0 120.5 29t104.5 85.5t93.5 129.5t73 179t30.5 193q0 79 -36 121.5t-98 42.5q-90 0 -208 -131.5t-159 -277.5z" />
<glyph unicode="&#xff;" horiz-adv-x="1241" d="M29 -336q0 44 29.5 70.5t66.5 26.5q47 0 73 -36t43 -36q11 0 27 10q56 37 150 130l188 187q5 5 4 11l-36 382q-14 147 -32.5 242.5t-60.5 136t-99 33.5l-9 51l154 27q107 19 161 -62q51 -80 79 -375l24 -251v-9q250 265 302 428q12 39 12 70t-46 63t-46 75q0 35 25 57.5 t61 22.5q41 0 72.5 -34t31.5 -85q0 -50 -18 -108q-83 -257 -456 -627q-374 -370 -454.5 -430t-140.5 -60q-46 0 -75.5 24t-29.5 66zM503 1132q0 41 28.5 70t68.5 29q41 0 70.5 -29t29.5 -70q0 -40 -29.5 -68.5t-70.5 -28.5q-40 0 -68.5 28.5t-28.5 68.5zM828 1132 q0 41 29 70t70 29q42 0 70 -29t28 -70q0 -40 -28.5 -68.5t-69.5 -28.5q-40 0 -69.5 28.5t-29.5 68.5z" />
<glyph unicode="&#x152;" horiz-adv-x="2299" d="M216 449q0 184 87 358t207 292t256.5 181t290.5 63q128 0 226 -55q70 -39 118 -105q6 26 6 40q0 24 -9.5 38.5t-25 22.5t-38.5 8l15 51h924l-75 -262l-50 13q6 54 -25 98q-29 39 -77 57q-65 25 -245 26h-46q-48 0 -85 -23q-56 -38 -82 -129l-109 -382h132q136 0 183.5 19 t77.5 80h53l-81 -282l-49 15q0 39 -17 60t-51.5 30t-135.5 9h-132v-1l-134 -468q-12 -43 -13 -65q0 -24 9.5 -39t25 -22.5t37.5 -7.5h163q195 0 304 56t170 183l50 -14l-84 -294h-1023l15 52q24 0 60 23q33 22 56 68q-17 -12 -35 -23q-193 -120 -400 -120q-148 0 -248 66 t-148 173.5t-48 209.5zM412 402q0 -134 69.5 -233.5t212.5 -99.5q84 0 167 38.5t173 141.5q113 130 189.5 331.5t76.5 375.5q0 129 -69 224t-207 95q-94 0 -184.5 -43.5t-180 -149.5t-159.5 -278q-88 -212 -88 -402z" />
<glyph unicode="&#x153;" horiz-adv-x="1735" d="M163 311q0 143 83.5 291t220 232t278.5 84q155 0 240 -87q33 -34 54 -76q43 39 92 71q143 92 362 92q128 0 184 -47t56 -104q0 -78 -65 -151q-86 -98 -254 -158q-111 -41 -378 -67l-1 -4q-6 -40 -5 -82q0 -102 55 -160.5t148 -58.5q164 0 319 184l40 -34 q-197 -236 -458 -236q-157 0 -236 78q-30 28 -48 65q-39 -33 -82 -59q-137 -84 -279 -84q-155 0 -240.5 87t-85.5 224zM356 244q0 -93 44 -142.5t104 -49.5q127 0 250 206t123 415q0 93 -43.5 143t-102.5 50q-128 0 -251.5 -206t-123.5 -416zM1046 442q145 17 237 59 q122 54 185.5 129.5t63.5 144.5q0 42 -26.5 66t-71.5 24q-66 0 -161 -64.5t-162 -190.5q-45 -84 -65 -168z" />
<glyph unicode="&#x178;" horiz-adv-x="1531" d="M328 1292l15 51h401l-15 -51q-33 -5 -51 -39q-22 -42 -5 -106l139 -495l330 457q53 74 43 123q-7 29 -26.5 44.5t-43.5 15.5l15 51h400l-14 -51q-57 0 -122 -35q-97 -53 -205 -201l-353 -489l-32 -44l-92 -320q-17 -60 -17 -83q0 -24 9.5 -38.5t25 -22t37.5 -7.5l-15 -52 h-401l15 52q24 0 60 23q56 38 87 145l109 380l-153 545q-13 45 -27 72q-15 28 -31 43.5t-38 23.5t-45 8zM737 1558q0 41 28.5 70t68.5 29q41 0 70.5 -29t29.5 -70q0 -40 -29.5 -68.5t-70.5 -28.5q-40 0 -68.5 28.5t-28.5 68.5zM1062 1558q0 41 29 70t70 29q42 0 70 -29 t28 -70q0 -40 -28.5 -68.5t-69.5 -28.5q-40 0 -69.5 28.5t-29.5 68.5z" />
<glyph unicode="&#x2c6;" horiz-adv-x="557" d="M191 1035l305 308h150l73 -308h-51l-136 195l-290 -195h-51z" />
<glyph unicode="&#x2dc;" horiz-adv-x="588" d="M174 1039q7 135 60 196t126 61t177.5 -69t143.5 -69q35 0 56 26q29 31 39 110h30q2 -125 -53 -192t-130 -67q-72 0 -154 58t-105 69q-24 11 -46 11q-37 0 -61 -29.5t-31 -104.5h-52z" />
<glyph unicode="&#x2000;" horiz-adv-x="918" />
<glyph unicode="&#x2001;" horiz-adv-x="1836" />
<glyph unicode="&#x2002;" horiz-adv-x="918" />
<glyph unicode="&#x2003;" horiz-adv-x="1836" />
<glyph unicode="&#x2004;" horiz-adv-x="612" />
<glyph unicode="&#x2005;" horiz-adv-x="459" />
<glyph unicode="&#x2006;" horiz-adv-x="306" />
<glyph unicode="&#x2007;" horiz-adv-x="306" />
<glyph unicode="&#x2008;" horiz-adv-x="229" />
<glyph unicode="&#x2009;" horiz-adv-x="367" />
<glyph unicode="&#x200a;" horiz-adv-x="102" />
<glyph unicode="&#x2010;" horiz-adv-x="812" d="M167 386l42 146h525l-42 -146h-525z" />
<glyph unicode="&#x2011;" horiz-adv-x="812" d="M167 386l42 146h525l-42 -146h-525z" />
<glyph unicode="&#x2012;" horiz-adv-x="812" d="M167 386l42 146h525l-42 -146h-525z" />
<glyph unicode="&#x2013;" horiz-adv-x="1281" d="M202 412v94h1064v-94h-1064z" />
<glyph unicode="&#x2014;" horiz-adv-x="1869" d="M202 413v93l1653 -1v-93z" />
<glyph unicode="&#x2018;" horiz-adv-x="528" d="M353 983q0 119 72.5 212.5t205.5 148.5l26 -45q-75 -34 -121 -85q-35 -39 -35 -77q0 -10 4 -24q6 -19 38 -51.5t32 -78.5t-32 -78t-78 -32q-48 0 -80 32.5t-32 77.5z" />
<glyph unicode="&#x2019;" horiz-adv-x="643" d="M332 917q75 34 121 85q35 39 35 77q0 10 -4 24q-6 19 -38 51.5t-32 78.5t32 78t78 32q48 0 80 -32.5t32 -77.5q0 -119 -72.5 -212.5t-205.5 -148.5z" />
<glyph unicode="&#x201a;" horiz-adv-x="479" d="M11 -205q75 34 121 85q35 39 35 77q0 10 -4 24q-6 19 -38 51.5t-32 78.5t32 78t78 32q48 0 80 -32.5t32 -77.5q0 -119 -72.5 -212.5t-205.5 -148.5z" />
<glyph unicode="&#x201c;" horiz-adv-x="856" d="M353 983q0 119 72.5 212.5t205.5 148.5l26 -45q-75 -34 -121 -85q-35 -39 -35 -77q0 -10 4 -24q6 -19 38 -51.5t32 -78.5t-32 -78t-78 -32q-48 0 -80 32.5t-32 77.5zM681 983q0 119 72.5 212.5t205.5 148.5l26 -45q-75 -34 -121 -85q-35 -39 -35 -77q0 -10 4 -24 q6 -19 38 -51.5t32 -78.5t-32 -78t-78 -32q-48 0 -80 32.5t-32 77.5z" />
<glyph unicode="&#x201d;" horiz-adv-x="970" d="M332 917q75 34 121 85q35 39 35 77q0 10 -4 24q-6 19 -38 51.5t-32 78.5t32 78t78 32q48 0 80 -32.5t32 -77.5q0 -119 -72.5 -212.5t-205.5 -148.5zM660 917q75 34 121 85q35 39 35 77q0 10 -4 24q-6 19 -38 51.5t-32 78.5t32 78t78 32q48 0 80 -32.5t32 -77.5 q0 -119 -72.5 -212.5t-205.5 -148.5z" />
<glyph unicode="&#x201e;" horiz-adv-x="806" d="M11 -205q75 34 121 85q35 39 35 77q0 10 -4 24q-6 19 -38 51.5t-32 78.5t32 78t78 32q48 0 80 -32.5t32 -77.5q0 -119 -72.5 -212.5t-205.5 -148.5zM339 -205q75 34 121 85q35 39 35 77q0 10 -4 24q-6 19 -38 51.5t-32 78.5t32 78t78 32q48 0 80 -32.5t32 -77.5 q0 -119 -72.5 -212.5t-205.5 -148.5z" />
<glyph unicode="&#x2022;" horiz-adv-x="752" d="M261 672q0 102 71.5 174t173.5 72t174 -72.5t72 -173.5q0 -102 -72 -174t-174 -72t-173.5 72t-71.5 174z" />
<glyph unicode="&#x2026;" horiz-adv-x="1486" d="M93 111q0 46 32.5 78t78.5 32q47 0 79 -32.5t32 -77.5q0 -46 -32.5 -78.5t-78.5 -32.5t-78.5 32.5t-32.5 78.5zM626 111q0 46 32 78t78 32q47 0 79 -32.5t32 -77.5q0 -46 -32.5 -78.5t-78.5 -32.5t-78 32.5t-32 78.5zM1158 111q0 46 32.5 78t78.5 32q47 0 79 -32.5 t32 -77.5q0 -46 -32.5 -78.5t-78.5 -32.5t-78.5 32.5t-32.5 78.5z" />
<glyph unicode="&#x202f;" horiz-adv-x="367" />
<glyph unicode="&#x2039;" horiz-adv-x="709" d="M188 456l452 462h51l-323 -462l127 -456h-69z" />
<glyph unicode="&#x203a;" horiz-adv-x="626" d="M123 0l323 461l-127 457h69l239 -457l-453 -461h-51z" />
<glyph unicode="&#x205f;" horiz-adv-x="459" />
<glyph unicode="&#x20ac;" horiz-adv-x="1369" d="M220 572l20 69h107q7 43 17 85h-99l19 69h100q20 61 50 123q96 198 263.5 311.5t341.5 113.5q80 0 179 -45q102 -49 152 -57l-64 -226l-42 14q5 60 -6.5 104t-40.5 74.5t-73.5 49t-98.5 18.5q-115 0 -223 -93q-138 -119 -216 -329q-11 -29 -19 -58h491l-20 -69h-489 q-10 -43 -17 -85h482l-20 -69h-469q-3 -40 -4 -80q0 -187 93 -302.5t197 -115.5q112 0 207 62t164 175l36 -29q-63 -110 -173 -196t-258 -86q-163 0 -264 66.5t-153 185t-52 256.5q0 32 2 64h-120z" />
<glyph unicode="&#x2122;" horiz-adv-x="1753" d="M406 672l8 26q11 0 29 11q28 19 44 73l151 527h-38q-53 0 -81.5 -11.5t-50.5 -31.5t-37 -54l-25 7l36 124h514l-38 -131l-24 7q2 27 -7 47t-33 31.5t-77 11.5h-37l-153 -536q-9 -29 -9 -41t4.5 -19.5t12.5 -11t19 -3.5l-8 -26h-200zM813 672l7 25q11 0 30 12q28 19 43 73 l132 460q9 29 9 41t-5 19.5t-13 11t-18 3.5l7 26h135l63 -552l397 552h151l-8 -26q-11 0 -29 -11q-28 -19 -44 -73l-132 -460q-9 -30 -9 -41t5 -19t13 -12t18 -4l-7 -25h-200l8 25q11 0 29 12q28 19 44 73l132 462l-411 -572h-43l-63 547l-127 -446q-8 -29 -9 -41 q0 -11 4.5 -19t12.5 -12t19 -4l-7 -25h-134z" />
<glyph unicode="&#x25fc;" horiz-adv-x="917" d="M0 0v918h918v-918h-918z" />
</font>
</defs>
</svg>
